<svg width="241" height="240" viewBox="0 0 241 240" fill="none" xmlns="http://www.w3.org/2000/svg">
<rect width="72" height="72" transform="translate(4.33972 84)" fill="#0C92EB"/>
<g opacity="0.3">
<path d="M47.2667 123.148C47.4 122.048 47.5 120.948 47.5 119.815C47.5 118.681 47.4 117.581 47.2667 116.481H52.9C53.1667 117.548 53.3334 118.665 53.3334 119.815C53.3334 120.965 53.1667 122.081 52.9 123.148M44.3167 132.415C45.3167 130.565 46.0834 128.565 46.6167 126.481H51.5334C49.9334 129.231 47.3834 131.365 44.3167 132.415ZM43.9 123.148H36.1C35.9334 122.048 35.8334 120.948 35.8334 119.815C35.8334 118.681 35.9334 117.565 36.1 116.481H43.9C44.05 117.565 44.1667 118.681 44.1667 119.815C44.1667 120.948 44.05 122.048 43.9 123.148ZM40 133.081C38.6167 131.081 37.5 128.865 36.8167 126.481H43.1834C42.5 128.865 41.3834 131.081 40 133.081ZM33.3334 113.148H28.4667C30.05 110.381 32.6167 108.248 35.6667 107.215C34.6667 109.065 33.9167 111.065 33.3334 113.148ZM28.4667 126.481H33.3334C33.9167 128.565 34.6667 130.565 35.6667 132.415C32.6167 131.365 30.05 129.231 28.4667 126.481ZM27.1 123.148C26.8334 122.081 26.6667 120.965 26.6667 119.815C26.6667 118.665 26.8334 117.548 27.1 116.481H32.7334C32.6 117.581 32.5 118.681 32.5 119.815C32.5 120.948 32.6 122.048 32.7334 123.148M40 106.531C41.3834 108.531 42.5 110.765 43.1834 113.148H36.8167C37.5 110.765 38.6167 108.531 40 106.531ZM51.5334 113.148H46.6167C46.0834 111.065 45.3167 109.065 44.3167 107.215C47.3834 108.265 49.9334 110.381 51.5334 113.148ZM40 103.148C30.7834 103.148 23.3334 110.648 23.3334 119.815C23.3334 124.235 25.0893 128.474 28.2149 131.6C29.7626 133.147 31.5999 134.375 33.622 135.213C35.6441 136.05 37.8113 136.481 40 136.481C44.4203 136.481 48.6595 134.725 51.7851 131.6C54.9108 128.474 56.6667 124.235 56.6667 119.815C56.6667 117.626 56.2356 115.459 55.398 113.437C54.5605 111.414 53.3328 109.577 51.7851 108.03C50.2375 106.482 48.4002 105.254 46.3781 104.417C44.356 103.579 42.1887 103.148 40 103.148Z" fill="#F3F3F3"/>
</g>
<rect width="72" height="72" transform="translate(4.33972 4)" fill="#0C92EB"/>
<path d="M30.3898 40.05L33.7231 45.8333L29.5064 51.1333L23.6731 41.0333L30.3898 40.05ZM48.6731 50V45.4833C50.1398 44.8333 51.1731 43.3833 51.1731 41.6667C51.1731 40.7167 50.8398 39.8333 50.2898 39.1667L53.5731 37.25C55.2564 36.2667 55.8398 34.1167 54.8564 32.4333L52.5564 28.4333C51.5731 26.75 49.4231 26.1667 47.7398 27.1333L34.1898 35C32.6064 35.8833 32.0564 37.9167 32.9731 39.5167L35.4731 43.85C36.3898 45.4333 38.4398 45.9833 40.0231 45.0667L43.1564 43.2667C43.5731 44.25 44.3564 45.05 45.3398 45.4833V50C45.3398 51.8333 46.8398 53.3333 48.6731 53.3333H57.0064V50H48.6731Z" fill="#F3F3F3"/>
<rect width="72" height="72" transform="translate(164.34 164)" fill="#0B65AE"/>
<g opacity="0.3">
<path d="M207.267 203.148C207.4 202.048 207.5 200.948 207.5 199.815C207.5 198.681 207.4 197.581 207.267 196.481H212.9C213.167 197.548 213.333 198.665 213.333 199.815C213.333 200.965 213.167 202.081 212.9 203.148M204.317 212.415C205.317 210.565 206.083 208.565 206.617 206.481H211.533C209.933 209.231 207.383 211.365 204.317 212.415ZM203.9 203.148H196.1C195.933 202.048 195.833 200.948 195.833 199.815C195.833 198.681 195.933 197.565 196.1 196.481H203.9C204.05 197.565 204.167 198.681 204.167 199.815C204.167 200.948 204.05 202.048 203.9 203.148ZM200 213.081C198.617 211.081 197.5 208.865 196.817 206.481H203.183C202.5 208.865 201.383 211.081 200 213.081ZM193.333 193.148H188.467C190.05 190.381 192.617 188.248 195.667 187.215C194.667 189.065 193.917 191.065 193.333 193.148ZM188.467 206.481H193.333C193.917 208.565 194.667 210.565 195.667 212.415C192.617 211.365 190.05 209.231 188.467 206.481ZM187.1 203.148C186.833 202.081 186.667 200.965 186.667 199.815C186.667 198.665 186.833 197.548 187.1 196.481H192.733C192.6 197.581 192.5 198.681 192.5 199.815C192.5 200.948 192.6 202.048 192.733 203.148M200 186.531C201.383 188.531 202.5 190.765 203.183 193.148H196.817C197.5 190.765 198.617 188.531 200 186.531ZM211.533 193.148H206.617C206.083 191.065 205.317 189.065 204.317 187.215C207.383 188.265 209.933 190.381 211.533 193.148ZM200 183.148C190.783 183.148 183.333 190.648 183.333 199.815C183.333 204.235 185.089 208.474 188.215 211.6C189.763 213.147 191.6 214.375 193.622 215.213C195.644 216.05 197.811 216.481 200 216.481C204.42 216.481 208.66 214.725 211.785 211.6C214.911 208.474 216.667 204.235 216.667 199.815C216.667 197.626 216.236 195.459 215.398 193.437C214.56 191.414 213.333 189.577 211.785 188.03C210.238 186.482 208.4 185.254 206.378 184.417C204.356 183.579 202.189 183.148 200 183.148Z" fill="#F3F3F3"/>
</g>
<g clip-path="url(#clip0_514_7515)">
<rect width="72" height="72" transform="translate(84.3397 4)" fill="#0B80D3"/>
<g opacity="0.3">
<path d="M130.023 27.4499C129.89 27.4499 129.756 27.4166 129.64 27.3499C126.44 25.6999 123.673 24.9999 120.34 24.9999C117.056 24.9999 113.923 25.7833 111.073 27.3499C110.673 27.5666 110.173 27.4166 109.94 27.0166C109.723 26.6166 109.873 26.0999 110.273 25.8833C113.373 24.1666 116.773 23.3333 120.34 23.3333C123.906 23.3333 127.006 24.1166 130.406 25.8333C130.823 26.0833 130.973 26.5833 130.756 26.9833C130.606 27.2833 130.34 27.4499 130.023 27.4499ZM106.173 36.1999C106.006 36.1999 105.84 36.1499 105.69 36.0499C105.34 35.7833 105.223 35.2666 105.49 34.8833C107.14 32.5499 109.24 30.7166 111.74 29.4333C117.006 26.7333 123.673 26.7166 128.923 29.4166C131.423 30.6999 133.523 32.4999 135.173 34.8333C135.44 35.1999 135.34 35.7333 134.973 35.9999C134.59 36.2666 134.073 36.1833 133.806 35.8333C132.306 33.6999 130.406 32.0499 128.156 30.8999C123.373 28.4499 117.256 28.4499 112.49 30.9166C110.223 32.0833 108.323 33.7499 106.823 35.8333C106.69 36.0833 106.44 36.1999 106.173 36.1999ZM116.59 56.3166C116.373 56.3166 116.173 56.2333 116.006 56.0666C114.556 54.6166 113.773 53.6833 112.656 51.6666C111.506 49.6166 110.906 47.1166 110.906 44.4333C110.906 39.4833 115.14 35.4499 120.34 35.4499C125.54 35.4499 129.773 39.4833 129.773 44.4333C129.773 44.6543 129.685 44.8662 129.529 45.0225C129.373 45.1788 129.161 45.2666 128.94 45.2666C128.719 45.2666 128.507 45.1788 128.35 45.0225C128.194 44.8662 128.106 44.6543 128.106 44.4333C128.106 40.3999 124.623 37.1166 120.34 37.1166C116.056 37.1166 112.573 40.3999 112.573 44.4333C112.573 46.8333 113.106 49.0499 114.123 50.8333C115.19 52.7666 115.923 53.5833 117.206 54.8833C117.523 55.2166 117.523 55.7333 117.206 56.0666C117.006 56.2333 116.806 56.3166 116.59 56.3166ZM128.54 53.2333C126.556 53.2333 124.806 52.7332 123.373 51.7499C120.89 50.0666 119.406 47.3333 119.406 44.4333C119.406 44.2122 119.494 44.0003 119.65 43.844C119.807 43.6877 120.019 43.5999 120.24 43.5999C120.461 43.5999 120.673 43.6877 120.829 43.844C120.985 44.0003 121.073 44.2122 121.073 44.4333C121.073 46.7833 122.273 48.9999 124.306 50.3666C125.49 51.1666 126.873 51.5499 128.54 51.5499C128.94 51.5499 129.606 51.4999 130.273 51.3833C130.723 51.2999 131.173 51.5999 131.24 52.0666C131.323 52.4999 131.023 52.9499 130.556 53.0333C129.606 53.2166 128.773 53.2333 128.54 53.2333ZM125.19 56.6666C125.123 56.6666 125.04 56.6666 124.973 56.6666C122.323 55.8999 120.59 54.9166 118.773 53.1332C116.44 50.8332 115.156 47.7333 115.156 44.4333C115.156 41.7333 117.456 39.5333 120.29 39.5333C123.123 39.5333 125.423 41.7333 125.423 44.4333C125.423 46.2166 127.006 47.6666 128.89 47.6666C130.806 47.6666 132.356 46.2166 132.356 44.4333C132.356 38.1499 126.94 33.0499 120.273 33.0499C115.54 33.0499 111.173 35.6833 109.256 39.7666C108.606 41.1166 108.273 42.6999 108.273 44.4333C108.273 45.7333 108.39 47.7833 109.39 50.4499C109.556 50.8833 109.34 51.3666 108.906 51.5166C108.473 51.6666 107.99 51.4499 107.84 51.0333C107.006 48.8499 106.623 46.6666 106.623 44.4333C106.623 42.4333 107.006 40.6166 107.756 39.0333C109.973 34.3833 114.89 31.3666 120.273 31.3666C127.84 31.3666 134.023 37.2166 134.023 44.4166C134.023 47.1166 131.723 49.3166 128.89 49.3166C126.056 49.3166 123.756 47.1166 123.756 44.4166C123.756 42.6333 122.206 41.1833 120.29 41.1833C118.373 41.1833 116.823 42.6333 116.823 44.4166C116.823 47.2666 117.923 49.9333 119.94 51.9333C121.523 53.4999 123.04 54.3666 125.39 54.9999C125.84 55.1333 126.09 55.5999 125.973 56.0333C125.89 56.4166 125.54 56.6666 125.19 56.6666Z" fill="#F3F3F3"/>
</g>
</g>
<rect width="72" height="72" transform="translate(4.33972 164)" fill="#0B80D3"/>
<g opacity="0.3">
<path d="M50.023 187.45C49.8897 187.45 49.7564 187.417 49.6397 187.35C46.4397 185.7 43.673 185 40.3397 185C37.0564 185 33.923 185.783 31.073 187.35C30.673 187.567 30.173 187.417 29.9397 187.017C29.723 186.617 29.873 186.1 30.273 185.883C33.373 184.167 36.773 183.333 40.3397 183.333C43.9064 183.333 47.0064 184.117 50.4064 185.833C50.823 186.083 50.973 186.583 50.7564 186.983C50.6064 187.283 50.3397 187.45 50.023 187.45ZM26.173 196.2C26.0064 196.2 25.8397 196.15 25.6897 196.05C25.3397 195.783 25.223 195.267 25.4897 194.883C27.1397 192.55 29.2397 190.717 31.7397 189.433C37.0064 186.733 43.673 186.717 48.923 189.417C51.423 190.7 53.523 192.5 55.173 194.833C55.4397 195.2 55.3397 195.733 54.973 196C54.5897 196.267 54.073 196.183 53.8064 195.833C52.3064 193.7 50.4064 192.05 48.1564 190.9C43.373 188.45 37.2564 188.45 32.4897 190.917C30.223 192.083 28.323 193.75 26.823 195.833C26.6897 196.083 26.4397 196.2 26.173 196.2ZM36.5897 216.317C36.373 216.317 36.173 216.233 36.0064 216.067C34.5564 214.617 33.773 213.683 32.6564 211.667C31.5064 209.617 30.9064 207.117 30.9064 204.433C30.9064 199.483 35.1397 195.45 40.3397 195.45C45.5397 195.45 49.773 199.483 49.773 204.433C49.773 204.654 49.6852 204.866 49.529 205.023C49.3727 205.179 49.1607 205.267 48.9397 205.267C48.7187 205.267 48.5067 205.179 48.3504 205.023C48.1942 204.866 48.1064 204.654 48.1064 204.433C48.1064 200.4 44.623 197.117 40.3397 197.117C36.0564 197.117 32.573 200.4 32.573 204.433C32.573 206.833 33.1064 209.05 34.123 210.833C35.1897 212.767 35.923 213.583 37.2064 214.883C37.523 215.217 37.523 215.733 37.2064 216.067C37.0064 216.233 36.8064 216.317 36.5897 216.317ZM48.5397 213.233C46.5564 213.233 44.8064 212.733 43.373 211.75C40.8897 210.067 39.4064 207.333 39.4064 204.433C39.4064 204.212 39.4942 204 39.6504 203.844C39.8067 203.688 40.0187 203.6 40.2397 203.6C40.4607 203.6 40.6727 203.688 40.829 203.844C40.9852 204 41.073 204.212 41.073 204.433C41.073 206.783 42.273 209 44.3064 210.367C45.4897 211.167 46.873 211.55 48.5397 211.55C48.9397 211.55 49.6064 211.5 50.273 211.383C50.723 211.3 51.173 211.6 51.2397 212.067C51.323 212.5 51.023 212.95 50.5564 213.033C49.6064 213.217 48.773 213.233 48.5397 213.233ZM45.1897 216.667C45.123 216.667 45.0397 216.667 44.973 216.667C42.323 215.9 40.5897 214.917 38.773 213.133C36.4397 210.833 35.1564 207.733 35.1564 204.433C35.1564 201.733 37.4564 199.533 40.2897 199.533C43.123 199.533 45.423 201.733 45.423 204.433C45.423 206.217 47.0064 207.667 48.8897 207.667C50.8064 207.667 52.3564 206.217 52.3564 204.433C52.3564 198.15 46.9397 193.05 40.273 193.05C35.5397 193.05 31.173 195.683 29.2564 199.767C28.6064 201.117 28.273 202.7 28.273 204.433C28.273 205.733 28.3897 207.783 29.3897 210.45C29.5564 210.883 29.3397 211.367 28.9064 211.517C28.473 211.667 27.9897 211.45 27.8397 211.033C27.0064 208.85 26.623 206.667 26.623 204.433C26.623 202.433 27.0064 200.617 27.7564 199.033C29.973 194.383 34.8897 191.367 40.273 191.367C47.8397 191.367 54.023 197.217 54.023 204.417C54.023 207.117 51.723 209.317 48.8897 209.317C46.0564 209.317 43.7564 207.117 43.7564 204.417C43.7564 202.633 42.2064 201.183 40.2897 201.183C38.373 201.183 36.823 202.633 36.823 204.417C36.823 207.267 37.923 209.933 39.9397 211.933C41.523 213.5 43.0397 214.367 45.3897 215C45.8397 215.133 46.0897 215.6 45.973 216.033C45.8897 216.417 45.5397 216.667 45.1897 216.667Z" fill="#F3F3F3"/>
</g>
<rect width="72" height="72" transform="translate(164.34 84)" fill="#0B80D3"/>
<g opacity="0.3">
<path d="M217.24 125.567L217.206 125.583C217.59 126.05 217.923 126.567 218.173 127.117L218.323 127.433C219.506 130.25 218.673 133.5 216.49 135.533C214.506 137.35 211.74 137.833 209.173 137.5C206.74 137.2 204.506 135.667 203.223 133.55C202.84 132.9 202.506 132.167 202.34 131.417C202.123 130.833 202.056 130.2 202.006 129.583C201.856 126.917 202.923 124.083 204.94 122.417C204.023 124.433 204.24 126.95 205.59 128.7L205.773 128.917C206.006 129.117 206.29 129.167 206.556 129.067C206.806 128.967 207.006 128.717 207.006 128.45L206.89 128.05C205.423 124.167 206.656 119.667 209.773 117.117C210.623 116.417 211.673 115.783 212.773 115.5C211.64 117.767 212.006 120.733 213.823 122.5C214.59 123.333 215.523 123.817 216.306 124.55L217.24 125.567ZM213.44 133.333L213.423 133.283C214.173 132.633 214.59 131.517 214.556 130.517L214.506 130C214.173 128.333 212.723 127.767 211.79 126.55L211.073 125.25C210.706 126.083 210.673 126.867 210.823 127.767C210.99 128.717 211.356 129.533 211.173 130.517C210.906 131.6 210.056 132.683 208.573 133.033C209.406 133.85 210.756 134.5 212.106 134.033C212.54 133.917 213.09 133.6 213.44 133.333ZM185.34 126.667H198.773L198.673 128.333C198.673 130.683 199.273 132.883 200.34 134.8V135H185.34V126.667ZM183.673 116.667H193.673V125H183.673V116.667ZM195.34 116.667H205.34V116.783C202.29 118.55 199.99 121.5 199.09 125H195.34V116.667ZM185.34 106.667H198.673V115H185.34V106.667ZM200.34 106.667H215.34V115H200.34V106.667Z" fill="#F3F3F3"/>
</g>
<rect width="72" height="72" transform="translate(84.3397 84)" fill="#0B65AE"/>
<g opacity="0.3">
<path d="M137.24 125.567L137.206 125.583C137.59 126.05 137.923 126.567 138.173 127.117L138.323 127.433C139.506 130.25 138.673 133.5 136.49 135.533C134.506 137.35 131.74 137.833 129.173 137.5C126.74 137.2 124.506 135.667 123.223 133.55C122.84 132.9 122.506 132.167 122.34 131.417C122.123 130.833 122.056 130.2 122.006 129.583C121.856 126.917 122.923 124.083 124.94 122.417C124.023 124.433 124.24 126.95 125.59 128.7L125.773 128.917C126.006 129.117 126.29 129.167 126.556 129.067C126.806 128.967 127.006 128.717 127.006 128.45L126.89 128.05C125.423 124.167 126.656 119.667 129.773 117.117C130.623 116.417 131.673 115.783 132.773 115.5C131.64 117.767 132.006 120.733 133.823 122.5C134.59 123.333 135.523 123.817 136.306 124.55L137.24 125.567ZM133.44 133.333L133.423 133.283C134.173 132.633 134.59 131.517 134.556 130.517L134.506 130C134.173 128.333 132.723 127.767 131.79 126.55L131.073 125.25C130.706 126.083 130.673 126.867 130.823 127.767C130.99 128.717 131.356 129.533 131.173 130.517C130.906 131.6 130.056 132.683 128.573 133.033C129.406 133.85 130.756 134.5 132.106 134.033C132.54 133.917 133.09 133.6 133.44 133.333ZM105.34 126.667H118.773L118.673 128.333C118.673 130.683 119.273 132.883 120.34 134.8V135H105.34V126.667ZM103.673 116.667H113.673V125H103.673V116.667ZM115.34 116.667H125.34V116.783C122.29 118.55 119.99 121.5 119.09 125H115.34V116.667ZM105.34 106.667H118.673V115H105.34V106.667ZM120.34 106.667H135.34V115H120.34V106.667Z" fill="#F3F3F3"/>
</g>
<rect width="72" height="72" transform="translate(84.3397 164)" fill="#0C92EB"/>
<path d="M120.34 181.667L105.34 188.333V198.333C105.34 207.583 111.74 216.233 120.34 218.333C128.94 216.233 135.34 207.583 135.34 198.333V188.333L120.34 181.667ZM120.34 191.667C122.673 191.667 125.006 193.5 125.006 195.833V198.333C126.006 198.333 127.006 199.333 127.006 200.5V206.333C127.006 207.333 126.006 208.333 124.84 208.333H115.673C114.673 208.333 113.673 207.333 113.673 206.167V200.333C113.673 199.333 114.673 198.333 115.673 198.333V195.833C115.673 193.5 118.006 191.667 120.34 191.667ZM120.34 193.667C119.006 193.667 117.84 194.5 117.84 195.833V198.333H122.84V195.833C122.84 194.5 121.673 193.667 120.34 193.667Z" fill="#F3F3F3"/>
<rect width="72" height="72" transform="translate(164.34 4)" fill="#0B65AE"/>
<g opacity="0.3">
<path d="M200 21.4814L185 28.1481V38.1481C185 47.3981 191.4 56.0481 200 58.1481C208.6 56.0481 215 47.3981 215 38.1481V28.1481L200 21.4814ZM200 25.1148L211.667 30.3148V38.5148C211.667 41.3481 210.833 44.2314 209.417 46.7648C206.667 44.7148 202.1 43.9814 200 43.9814C197.9 43.9814 193.333 44.7148 190.583 46.7648C189.167 44.2314 188.333 41.3481 188.333 38.5148V30.3148L200 25.1148ZM200 29.8148C198.453 29.8148 196.969 30.4294 195.875 31.5233C194.781 32.6173 194.167 34.101 194.167 35.6481C194.167 37.1952 194.781 38.6789 195.875 39.7729C196.969 40.8669 198.453 41.4814 200 41.4814C201.547 41.4814 203.031 40.8669 204.125 39.7729C205.219 38.6789 205.833 37.1952 205.833 35.6481C205.833 34.101 205.219 32.6173 204.125 31.5233C203.031 30.4294 201.547 29.8148 200 29.8148ZM200 33.1481C200.663 33.1481 201.299 33.4115 201.768 33.8803C202.237 34.3492 202.5 34.9851 202.5 35.6481C202.5 36.3112 202.237 36.947 201.768 37.4159C201.299 37.8847 200.663 38.1481 200 38.1481C199.337 38.1481 198.701 37.8847 198.232 37.4159C197.763 36.947 197.5 36.3112 197.5 35.6481C197.5 34.9851 197.763 34.3492 198.232 33.8803C198.701 33.4115 199.337 33.1481 200 33.1481ZM200 47.3148C202.617 47.3148 206.067 48.3314 207.55 49.5481C205.483 52.1148 202.833 54.0648 200 54.8148C197.167 54.0648 194.517 52.1148 192.45 49.5481C193.95 48.3314 197.383 47.3148 200 47.3148Z" fill="#F3F3F3"/>
</g>
<defs>
<clipPath id="clip0_514_7515">
<rect width="72" height="72" fill="white" transform="translate(84.3397 4)"/>
</clipPath>
</defs>
</svg>
