<svg width="240" height="240" viewBox="0 0 240 240" fill="none" xmlns="http://www.w3.org/2000/svg">
<rect width="72" height="72" transform="translate(4.33972 4)" fill="#0C92EB"/>
<g opacity="0.3">
<path d="M30.3898 40.05L33.7231 45.8333L29.5064 51.1333L23.6731 41.0333L30.3898 40.05ZM48.6731 50V45.4833C50.1398 44.8333 51.1731 43.3833 51.1731 41.6667C51.1731 40.7167 50.8398 39.8333 50.2898 39.1667L53.5731 37.25C55.2564 36.2667 55.8398 34.1167 54.8564 32.4333L52.5564 28.4333C51.5731 26.75 49.4231 26.1667 47.7398 27.1333L34.1898 35C32.6064 35.8833 32.0564 37.9167 32.9731 39.5167L35.4731 43.85C36.3898 45.4333 38.4398 45.9833 40.0231 45.0667L43.1564 43.2667C43.5731 44.25 44.3564 45.05 45.3398 45.4833V50C45.3398 51.8333 46.8398 53.3333 48.6731 53.3333H57.0064V50H48.6731Z" fill="#F3F3F3"/>
</g>
<g clip-path="url(#clip0_514_7545)">
<rect width="72" height="72" transform="translate(84.3397 84)" fill="#0B80D3"/>
<path d="M130.023 107.45C129.89 107.45 129.756 107.417 129.64 107.35C126.44 105.7 123.673 105 120.34 105C117.056 105 113.923 105.783 111.073 107.35C110.673 107.567 110.173 107.417 109.94 107.017C109.723 106.617 109.873 106.1 110.273 105.883C113.373 104.167 116.773 103.333 120.34 103.333C123.906 103.333 127.006 104.117 130.406 105.833C130.823 106.083 130.973 106.583 130.756 106.983C130.606 107.283 130.34 107.45 130.023 107.45ZM106.173 116.2C106.006 116.2 105.84 116.15 105.69 116.05C105.34 115.783 105.223 115.267 105.49 114.883C107.14 112.55 109.24 110.717 111.74 109.433C117.006 106.733 123.673 106.717 128.923 109.417C131.423 110.7 133.523 112.5 135.173 114.833C135.44 115.2 135.34 115.733 134.973 116C134.59 116.267 134.073 116.183 133.806 115.833C132.306 113.7 130.406 112.05 128.156 110.9C123.373 108.45 117.256 108.45 112.49 110.917C110.223 112.083 108.323 113.75 106.823 115.833C106.69 116.083 106.44 116.2 106.173 116.2ZM116.59 136.317C116.373 136.317 116.173 136.233 116.006 136.067C114.556 134.617 113.773 133.683 112.656 131.667C111.506 129.617 110.906 127.117 110.906 124.433C110.906 119.483 115.14 115.45 120.34 115.45C125.54 115.45 129.773 119.483 129.773 124.433C129.773 124.655 129.685 124.866 129.529 125.023C129.373 125.179 129.161 125.267 128.94 125.267C128.719 125.267 128.507 125.179 128.35 125.023C128.194 124.866 128.106 124.655 128.106 124.433C128.106 120.4 124.623 117.117 120.34 117.117C116.056 117.117 112.573 120.4 112.573 124.433C112.573 126.833 113.106 129.05 114.123 130.833C115.19 132.767 115.923 133.583 117.206 134.883C117.523 135.217 117.523 135.733 117.206 136.067C117.006 136.233 116.806 136.317 116.59 136.317ZM128.54 133.233C126.556 133.233 124.806 132.733 123.373 131.75C120.89 130.067 119.406 127.333 119.406 124.433C119.406 124.212 119.494 124.001 119.65 123.844C119.807 123.688 120.019 123.6 120.24 123.6C120.461 123.6 120.673 123.688 120.829 123.844C120.985 124.001 121.073 124.212 121.073 124.433C121.073 126.783 122.273 129 124.306 130.367C125.49 131.167 126.873 131.55 128.54 131.55C128.94 131.55 129.606 131.5 130.273 131.383C130.723 131.3 131.173 131.6 131.24 132.067C131.323 132.5 131.023 132.95 130.556 133.033C129.606 133.217 128.773 133.233 128.54 133.233ZM125.19 136.667C125.123 136.667 125.04 136.667 124.973 136.667C122.323 135.9 120.59 134.917 118.773 133.133C116.44 130.833 115.156 127.733 115.156 124.433C115.156 121.733 117.456 119.533 120.29 119.533C123.123 119.533 125.423 121.733 125.423 124.433C125.423 126.217 127.006 127.667 128.89 127.667C130.806 127.667 132.356 126.217 132.356 124.433C132.356 118.15 126.94 113.05 120.273 113.05C115.54 113.05 111.173 115.683 109.256 119.767C108.606 121.117 108.273 122.7 108.273 124.433C108.273 125.733 108.39 127.783 109.39 130.45C109.556 130.883 109.34 131.367 108.906 131.517C108.473 131.667 107.99 131.45 107.84 131.033C107.006 128.85 106.623 126.667 106.623 124.433C106.623 122.433 107.006 120.617 107.756 119.033C109.973 114.383 114.89 111.367 120.273 111.367C127.84 111.367 134.023 117.217 134.023 124.417C134.023 127.117 131.723 129.317 128.89 129.317C126.056 129.317 123.756 127.117 123.756 124.417C123.756 122.633 122.206 121.183 120.29 121.183C118.373 121.183 116.823 122.633 116.823 124.417C116.823 127.267 117.923 129.933 119.94 131.933C121.523 133.5 123.04 134.367 125.39 135C125.84 135.133 126.09 135.6 125.973 136.033C125.89 136.417 125.54 136.667 125.19 136.667Z" fill="#F3F3F3"/>
</g>
<rect width="72" height="72" transform="translate(164.34 164)" fill="#0B65AE"/>
<g opacity="0.3">
<path d="M200 181.481L185 188.148V198.148C185 207.398 191.4 216.048 200 218.148C208.6 216.048 215 207.398 215 198.148V188.148L200 181.481ZM200 185.114L211.667 190.314V198.514C211.667 201.348 210.833 204.231 209.417 206.764C206.667 204.714 202.1 203.981 200 203.981C197.9 203.981 193.333 204.714 190.583 206.764C189.167 204.231 188.333 201.348 188.333 198.514V190.314L200 185.114ZM200 189.814C198.453 189.814 196.969 190.429 195.875 191.523C194.781 192.617 194.167 194.101 194.167 195.648C194.167 197.195 194.781 198.678 195.875 199.772C196.969 200.866 198.453 201.481 200 201.481C201.547 201.481 203.031 200.866 204.125 199.772C205.219 198.678 205.833 197.195 205.833 195.648C205.833 194.101 205.219 192.617 204.125 191.523C203.031 190.429 201.547 189.814 200 189.814ZM200 193.148C200.663 193.148 201.299 193.411 201.768 193.88C202.237 194.349 202.5 194.985 202.5 195.648C202.5 196.311 202.237 196.947 201.768 197.415C201.299 197.884 200.663 198.148 200 198.148C199.337 198.148 198.701 197.884 198.232 197.415C197.763 196.947 197.5 196.311 197.5 195.648C197.5 194.985 197.763 194.349 198.232 193.88C198.701 193.411 199.337 193.148 200 193.148ZM200 207.314C202.617 207.314 206.067 208.331 207.55 209.548C205.483 212.114 202.833 214.064 200 214.814C197.167 214.064 194.517 212.114 192.45 209.548C193.95 208.331 197.383 207.314 200 207.314Z" fill="#F3F3F3"/>
</g>
<rect width="72" height="72" transform="translate(84.3397 4)" fill="#0C92EB"/>
<g opacity="0.3">
<path d="M127.267 43.1479C127.4 42.0479 127.5 40.9479 127.5 39.8146C127.5 38.6813 127.4 37.5813 127.267 36.4813H132.9C133.167 37.5479 133.333 38.6646 133.333 39.8146C133.333 40.9646 133.167 42.0813 132.9 43.1479M124.317 52.4146C125.317 50.5646 126.083 48.5646 126.617 46.4813H131.533C129.933 49.2313 127.383 51.3646 124.317 52.4146ZM123.9 43.1479H116.1C115.933 42.0479 115.833 40.9479 115.833 39.8146C115.833 38.6813 115.933 37.5646 116.1 36.4813H123.9C124.05 37.5646 124.167 38.6813 124.167 39.8146C124.167 40.9479 124.05 42.0479 123.9 43.1479ZM120 53.0813C118.617 51.0813 117.5 48.8646 116.817 46.4813H123.183C122.5 48.8646 121.383 51.0813 120 53.0813ZM113.333 33.1479H108.467C110.05 30.3813 112.617 28.2479 115.667 27.2146C114.667 29.0646 113.917 31.0646 113.333 33.1479ZM108.467 46.4813H113.333C113.917 48.5646 114.667 50.5646 115.667 52.4146C112.617 51.3646 110.05 49.2313 108.467 46.4813ZM107.1 43.1479C106.833 42.0813 106.667 40.9646 106.667 39.8146C106.667 38.6646 106.833 37.5479 107.1 36.4813H112.733C112.6 37.5813 112.5 38.6813 112.5 39.8146C112.5 40.9479 112.6 42.0479 112.733 43.1479M120 26.5313C121.383 28.5313 122.5 30.7646 123.183 33.1479H116.817C117.5 30.7646 118.617 28.5313 120 26.5313ZM131.533 33.1479H126.617C126.083 31.0646 125.317 29.0646 124.317 27.2146C127.383 28.2646 129.933 30.3813 131.533 33.1479ZM120 23.1479C110.783 23.1479 103.333 30.6479 103.333 39.8146C103.333 44.2349 105.089 48.4741 108.215 51.5997C109.763 53.1474 111.6 54.375 113.622 55.2126C115.644 56.0502 117.811 56.4813 120 56.4813C124.42 56.4813 128.66 54.7253 131.785 51.5997C134.911 48.4741 136.667 44.2349 136.667 39.8146C136.667 37.6259 136.236 35.4586 135.398 33.4366C134.56 31.4145 133.333 29.5771 131.785 28.0295C130.238 26.4819 128.4 25.2542 126.378 24.4166C124.356 23.579 122.189 23.1479 120 23.1479Z" fill="#F3F3F3"/>
</g>
<rect width="72" height="72" transform="translate(164.34 4)" fill="#0B65AE"/>
<path d="M217.24 45.5667L217.206 45.5834C217.59 46.0501 217.923 46.5667 218.173 47.1167L218.323 47.4334C219.506 50.2501 218.673 53.5001 216.49 55.5334C214.506 57.3501 211.74 57.8334 209.173 57.5001C206.74 57.2001 204.506 55.6667 203.223 53.5501C202.84 52.9001 202.506 52.1667 202.34 51.4167C202.123 50.8334 202.056 50.2001 202.006 49.5834C201.856 46.9167 202.923 44.0834 204.94 42.4167C204.023 44.4334 204.24 46.9501 205.59 48.7001L205.773 48.9167C206.006 49.1167 206.29 49.1668 206.556 49.0668C206.806 48.9668 207.006 48.7167 207.006 48.4501L206.89 48.0501C205.423 44.1667 206.656 39.6667 209.773 37.1167C210.623 36.4167 211.673 35.7834 212.773 35.5001C211.64 37.7667 212.006 40.7334 213.823 42.5001C214.59 43.3334 215.523 43.8167 216.306 44.5501L217.24 45.5667ZM213.44 53.3334L213.423 53.2834C214.173 52.6334 214.59 51.5167 214.556 50.5167L214.506 50.0001C214.173 48.3334 212.723 47.7667 211.79 46.5501L211.073 45.2501C210.706 46.0834 210.673 46.8667 210.823 47.7667C210.99 48.7167 211.356 49.5334 211.173 50.5167C210.906 51.6001 210.056 52.6834 208.573 53.0334C209.406 53.8501 210.756 54.5001 212.106 54.0334C212.54 53.9167 213.09 53.6001 213.44 53.3334ZM185.34 46.6667H198.773L198.673 48.3334C198.673 50.6834 199.273 52.8834 200.34 54.8001V55.0001H185.34V46.6667ZM183.673 36.6667H193.673V45.0001H183.673V36.6667ZM195.34 36.6667H205.34V36.7834C202.29 38.5501 199.99 41.5001 199.09 45.0001H195.34V36.6667ZM185.34 26.6667H198.673V35.0001H185.34V26.6667ZM200.34 26.6667H215.34V35.0001H200.34V26.6667Z" fill="#F3F3F3"/>
<rect width="72" height="72" transform="translate(164.34 84)" fill="#0C92EB"/>
<g opacity="0.3">
<path d="M217.24 125.567L217.206 125.583C217.59 126.05 217.923 126.567 218.173 127.117L218.323 127.433C219.506 130.25 218.673 133.5 216.49 135.533C214.506 137.35 211.74 137.833 209.173 137.5C206.74 137.2 204.506 135.667 203.223 133.55C202.84 132.9 202.506 132.167 202.34 131.417C202.123 130.833 202.056 130.2 202.006 129.583C201.856 126.917 202.923 124.083 204.94 122.417C204.023 124.433 204.24 126.95 205.59 128.7L205.773 128.917C206.006 129.117 206.29 129.167 206.556 129.067C206.806 128.967 207.006 128.717 207.006 128.45L206.89 128.05C205.423 124.167 206.656 119.667 209.773 117.117C210.623 116.417 211.673 115.783 212.773 115.5C211.64 117.767 212.006 120.733 213.823 122.5C214.59 123.333 215.523 123.817 216.306 124.55L217.24 125.567ZM213.44 133.333L213.423 133.283C214.173 132.633 214.59 131.517 214.556 130.517L214.506 130C214.173 128.333 212.723 127.767 211.79 126.55L211.073 125.25C210.706 126.083 210.673 126.867 210.823 127.767C210.99 128.717 211.356 129.533 211.173 130.517C210.906 131.6 210.056 132.683 208.573 133.033C209.406 133.85 210.756 134.5 212.106 134.033C212.54 133.917 213.09 133.6 213.44 133.333ZM185.34 126.667H198.773L198.673 128.333C198.673 130.683 199.273 132.883 200.34 134.8V135H185.34V126.667ZM183.673 116.667H193.673V125H183.673V116.667ZM195.34 116.667H205.34V116.783C202.29 118.55 199.99 121.5 199.09 125H195.34V116.667ZM185.34 106.667H198.673V115H185.34V106.667ZM200.34 106.667H215.34V115H200.34V106.667Z" fill="#F3F3F3"/>
</g>
<rect width="72" height="72" transform="translate(4.33972 164)" fill="#0B80D3"/>
<g opacity="0.3">
<path d="M50.023 187.45C49.8897 187.45 49.7564 187.417 49.6397 187.35C46.4397 185.7 43.673 185 40.3397 185C37.0564 185 33.923 185.783 31.073 187.35C30.673 187.567 30.173 187.417 29.9397 187.017C29.723 186.617 29.873 186.1 30.273 185.883C33.373 184.167 36.773 183.333 40.3397 183.333C43.9064 183.333 47.0064 184.117 50.4064 185.833C50.823 186.083 50.973 186.583 50.7564 186.983C50.6064 187.283 50.3397 187.45 50.023 187.45ZM26.173 196.2C26.0064 196.2 25.8397 196.15 25.6897 196.05C25.3397 195.783 25.223 195.267 25.4897 194.883C27.1397 192.55 29.2397 190.717 31.7397 189.433C37.0064 186.733 43.673 186.717 48.923 189.417C51.423 190.7 53.523 192.5 55.173 194.833C55.4397 195.2 55.3397 195.733 54.973 196C54.5897 196.267 54.073 196.183 53.8064 195.833C52.3064 193.7 50.4064 192.05 48.1564 190.9C43.373 188.45 37.2564 188.45 32.4897 190.917C30.223 192.083 28.323 193.75 26.823 195.833C26.6897 196.083 26.4397 196.2 26.173 196.2ZM36.5897 216.317C36.373 216.317 36.173 216.233 36.0064 216.067C34.5564 214.617 33.773 213.683 32.6564 211.667C31.5064 209.617 30.9064 207.117 30.9064 204.433C30.9064 199.483 35.1397 195.45 40.3397 195.45C45.5397 195.45 49.773 199.483 49.773 204.433C49.773 204.655 49.6852 204.866 49.529 205.023C49.3727 205.179 49.1607 205.267 48.9397 205.267C48.7187 205.267 48.5067 205.179 48.3504 205.023C48.1942 204.866 48.1064 204.655 48.1064 204.433C48.1064 200.4 44.623 197.117 40.3397 197.117C36.0564 197.117 32.573 200.4 32.573 204.433C32.573 206.833 33.1064 209.05 34.123 210.833C35.1897 212.767 35.923 213.583 37.2064 214.883C37.523 215.217 37.523 215.733 37.2064 216.067C37.0064 216.233 36.8064 216.317 36.5897 216.317ZM48.5397 213.233C46.5564 213.233 44.8064 212.733 43.373 211.75C40.8897 210.067 39.4064 207.333 39.4064 204.433C39.4064 204.212 39.4942 204.001 39.6504 203.844C39.8067 203.688 40.0187 203.6 40.2397 203.6C40.4607 203.6 40.6727 203.688 40.829 203.844C40.9852 204.001 41.073 204.212 41.073 204.433C41.073 206.783 42.273 209 44.3064 210.367C45.4897 211.167 46.873 211.55 48.5397 211.55C48.9397 211.55 49.6064 211.5 50.273 211.383C50.723 211.3 51.173 211.6 51.2397 212.067C51.323 212.5 51.023 212.95 50.5564 213.033C49.6064 213.217 48.773 213.233 48.5397 213.233ZM45.1897 216.667C45.123 216.667 45.0397 216.667 44.973 216.667C42.323 215.9 40.5897 214.917 38.773 213.133C36.4397 210.833 35.1564 207.733 35.1564 204.433C35.1564 201.733 37.4564 199.533 40.2897 199.533C43.123 199.533 45.423 201.733 45.423 204.433C45.423 206.217 47.0064 207.667 48.8897 207.667C50.8064 207.667 52.3564 206.217 52.3564 204.433C52.3564 198.15 46.9397 193.05 40.273 193.05C35.5397 193.05 31.173 195.683 29.2564 199.767C28.6064 201.117 28.273 202.7 28.273 204.433C28.273 205.733 28.3897 207.783 29.3897 210.45C29.5564 210.883 29.3397 211.367 28.9064 211.517C28.473 211.667 27.9897 211.45 27.8397 211.033C27.0064 208.85 26.623 206.667 26.623 204.433C26.623 202.433 27.0064 200.617 27.7564 199.033C29.973 194.383 34.8897 191.367 40.273 191.367C47.8397 191.367 54.023 197.217 54.023 204.417C54.023 207.117 51.723 209.317 48.8897 209.317C46.0564 209.317 43.7564 207.117 43.7564 204.417C43.7564 202.633 42.2064 201.183 40.2897 201.183C38.373 201.183 36.823 202.633 36.823 204.417C36.823 207.267 37.923 209.933 39.9397 211.933C41.523 213.5 43.0397 214.367 45.3897 215C45.8397 215.133 46.0897 215.6 45.973 216.033C45.8897 216.417 45.5397 216.667 45.1897 216.667Z" fill="#F3F3F3"/>
</g>
<rect width="72" height="72" transform="translate(84.3397 164)" fill="#0C92EB"/>
<g opacity="0.3">
<path d="M120.34 181.667L105.34 188.333V198.333C105.34 207.583 111.74 216.233 120.34 218.333C128.94 216.233 135.34 207.583 135.34 198.333V188.333L120.34 181.667ZM120.34 191.667C122.673 191.667 125.006 193.5 125.006 195.833V198.333C126.006 198.333 127.006 199.333 127.006 200.5V206.333C127.006 207.333 126.006 208.333 124.84 208.333H115.673C114.673 208.333 113.673 207.333 113.673 206.167V200.333C113.673 199.333 114.673 198.333 115.673 198.333V195.833C115.673 193.5 118.006 191.667 120.34 191.667ZM120.34 193.667C119.006 193.667 117.84 194.5 117.84 195.833V198.333H122.84V195.833C122.84 194.5 121.673 193.667 120.34 193.667Z" fill="#F3F3F3"/>
</g>
<rect width="72" height="72" transform="translate(4.33972 84)" fill="#0C92EB"/>
<g opacity="0.3">
<path d="M47.2667 123.148C47.4 122.048 47.5 120.948 47.5 119.815C47.5 118.681 47.4 117.581 47.2667 116.481H52.9C53.1667 117.548 53.3334 118.665 53.3334 119.815C53.3334 120.965 53.1667 122.081 52.9 123.148M44.3167 132.415C45.3167 130.565 46.0834 128.565 46.6167 126.481H51.5334C49.9334 129.231 47.3834 131.365 44.3167 132.415ZM43.9 123.148H36.1C35.9334 122.048 35.8334 120.948 35.8334 119.815C35.8334 118.681 35.9334 117.565 36.1 116.481H43.9C44.05 117.565 44.1667 118.681 44.1667 119.815C44.1667 120.948 44.05 122.048 43.9 123.148ZM40 133.081C38.6167 131.081 37.5 128.865 36.8167 126.481H43.1834C42.5 128.865 41.3834 131.081 40 133.081ZM33.3334 113.148H28.4667C30.05 110.381 32.6167 108.248 35.6667 107.215C34.6667 109.065 33.9167 111.065 33.3334 113.148ZM28.4667 126.481H33.3334C33.9167 128.565 34.6667 130.565 35.6667 132.415C32.6167 131.365 30.05 129.231 28.4667 126.481ZM27.1 123.148C26.8334 122.081 26.6667 120.965 26.6667 119.815C26.6667 118.665 26.8334 117.548 27.1 116.481H32.7334C32.6 117.581 32.5 118.681 32.5 119.815C32.5 120.948 32.6 122.048 32.7334 123.148M40 106.531C41.3834 108.531 42.5 110.765 43.1834 113.148H36.8167C37.5 110.765 38.6167 108.531 40 106.531ZM51.5334 113.148H46.6167C46.0834 111.065 45.3167 109.065 44.3167 107.215C47.3834 108.265 49.9334 110.381 51.5334 113.148ZM40 103.148C30.7834 103.148 23.3334 110.648 23.3334 119.815C23.3334 124.235 25.0893 128.474 28.2149 131.6C29.7626 133.147 31.5999 134.375 33.622 135.213C35.6441 136.05 37.8113 136.481 40 136.481C44.4203 136.481 48.6595 134.725 51.7851 131.6C54.9108 128.474 56.6667 124.235 56.6667 119.815C56.6667 117.626 56.2356 115.459 55.398 113.437C54.5605 111.414 53.3328 109.577 51.7851 108.03C50.2375 106.482 48.4002 105.254 46.3781 104.417C44.356 103.579 42.1887 103.148 40 103.148Z" fill="#F3F3F3"/>
</g>
<defs>
<clipPath id="clip0_514_7545">
<rect width="72" height="72" fill="white" transform="translate(84.3397 84)"/>
</clipPath>
</defs>
</svg>
