<svg width="240" height="240" viewBox="0 0 240 240" fill="none" xmlns="http://www.w3.org/2000/svg">
<rect width="72" height="72" transform="translate(84.3397 84)" fill="#0C92EB"/>
<g opacity="0.3">
<path d="M110.39 120.05L113.723 125.833L109.506 131.133L103.673 121.033L110.39 120.05ZM128.673 130V125.483C130.14 124.833 131.173 123.383 131.173 121.667C131.173 120.717 130.84 119.833 130.29 119.167L133.573 117.25C135.256 116.267 135.84 114.117 134.856 112.433L132.556 108.433C131.573 106.75 129.423 106.167 127.74 107.133L114.19 115C112.606 115.883 112.056 117.917 112.973 119.517L115.473 123.85C116.39 125.433 118.44 125.983 120.023 125.067L123.156 123.267C123.573 124.25 124.356 125.05 125.34 125.483V130C125.34 131.833 126.84 133.333 128.673 133.333H137.006V130H128.673Z" fill="#F3F3F3"/>
</g>
<g clip-path="url(#clip0_514_7603)">
<rect width="72" height="72" transform="translate(164.34 84)" fill="#0B80D3"/>
<g opacity="0.3">
<path d="M210.023 107.45C209.89 107.45 209.756 107.417 209.64 107.35C206.44 105.7 203.673 105 200.34 105C197.056 105 193.923 105.783 191.073 107.35C190.673 107.567 190.173 107.417 189.94 107.017C189.723 106.617 189.873 106.1 190.273 105.883C193.373 104.167 196.773 103.333 200.34 103.333C203.906 103.333 207.006 104.117 210.406 105.833C210.823 106.083 210.973 106.583 210.756 106.983C210.606 107.283 210.34 107.45 210.023 107.45ZM186.173 116.2C186.006 116.2 185.84 116.15 185.69 116.05C185.34 115.783 185.223 115.267 185.49 114.883C187.14 112.55 189.24 110.717 191.74 109.433C197.006 106.733 203.673 106.717 208.923 109.417C211.423 110.7 213.523 112.5 215.173 114.833C215.44 115.2 215.34 115.733 214.973 116C214.59 116.267 214.073 116.183 213.806 115.833C212.306 113.7 210.406 112.05 208.156 110.9C203.373 108.45 197.256 108.45 192.49 110.917C190.223 112.083 188.323 113.75 186.823 115.833C186.69 116.083 186.44 116.2 186.173 116.2ZM196.59 136.317C196.373 136.317 196.173 136.233 196.006 136.067C194.556 134.617 193.773 133.683 192.656 131.667C191.506 129.617 190.906 127.117 190.906 124.433C190.906 119.483 195.14 115.45 200.34 115.45C205.54 115.45 209.773 119.483 209.773 124.433C209.773 124.655 209.685 124.866 209.529 125.023C209.373 125.179 209.161 125.267 208.94 125.267C208.719 125.267 208.507 125.179 208.35 125.023C208.194 124.866 208.106 124.655 208.106 124.433C208.106 120.4 204.623 117.117 200.34 117.117C196.056 117.117 192.573 120.4 192.573 124.433C192.573 126.833 193.106 129.05 194.123 130.833C195.19 132.767 195.923 133.583 197.206 134.883C197.523 135.217 197.523 135.733 197.206 136.067C197.006 136.233 196.806 136.317 196.59 136.317ZM208.54 133.233C206.556 133.233 204.806 132.733 203.373 131.75C200.89 130.067 199.406 127.333 199.406 124.433C199.406 124.212 199.494 124.001 199.65 123.844C199.807 123.688 200.019 123.6 200.24 123.6C200.461 123.6 200.673 123.688 200.829 123.844C200.985 124.001 201.073 124.212 201.073 124.433C201.073 126.783 202.273 129 204.306 130.367C205.49 131.167 206.873 131.55 208.54 131.55C208.94 131.55 209.606 131.5 210.273 131.383C210.723 131.3 211.173 131.6 211.24 132.067C211.323 132.5 211.023 132.95 210.556 133.033C209.606 133.217 208.773 133.233 208.54 133.233ZM205.19 136.667C205.123 136.667 205.04 136.667 204.973 136.667C202.323 135.9 200.59 134.917 198.773 133.133C196.44 130.833 195.156 127.733 195.156 124.433C195.156 121.733 197.456 119.533 200.29 119.533C203.123 119.533 205.423 121.733 205.423 124.433C205.423 126.217 207.006 127.667 208.89 127.667C210.806 127.667 212.356 126.217 212.356 124.433C212.356 118.15 206.94 113.05 200.273 113.05C195.54 113.05 191.173 115.683 189.256 119.767C188.606 121.117 188.273 122.7 188.273 124.433C188.273 125.733 188.39 127.783 189.39 130.45C189.556 130.883 189.34 131.367 188.906 131.517C188.473 131.667 187.99 131.45 187.84 131.033C187.006 128.85 186.623 126.667 186.623 124.433C186.623 122.433 187.006 120.617 187.756 119.033C189.973 114.383 194.89 111.367 200.273 111.367C207.84 111.367 214.023 117.217 214.023 124.417C214.023 127.117 211.723 129.317 208.89 129.317C206.056 129.317 203.756 127.117 203.756 124.417C203.756 122.633 202.206 121.183 200.29 121.183C198.373 121.183 196.823 122.633 196.823 124.417C196.823 127.267 197.923 129.933 199.94 131.933C201.523 133.5 203.04 134.367 205.39 135C205.84 135.133 206.09 135.6 205.973 136.033C205.89 136.417 205.54 136.667 205.19 136.667Z" fill="#F3F3F3"/>
</g>
</g>
<rect width="72" height="72" transform="translate(4.33972 4)" fill="#0B65AE"/>
<g opacity="0.3">
<path d="M40 21.481L25 28.1476V38.1476C25 47.3976 31.4 56.0476 40 58.1476C48.6 56.0476 55 47.3976 55 38.1476V28.1476L40 21.481ZM40 25.1143L51.6667 30.3143V38.5143C51.6667 41.3476 50.8333 44.231 49.4167 46.7643C46.6667 44.7143 42.1 43.981 40 43.981C37.9 43.981 33.3333 44.7143 30.5833 46.7643C29.1667 44.231 28.3333 41.3476 28.3333 38.5143V30.3143L40 25.1143ZM40 29.8143C38.4529 29.8143 36.9692 30.4289 35.8752 31.5228C34.7812 32.6168 34.1667 34.1005 34.1667 35.6476C34.1667 37.1947 34.7812 38.6785 35.8752 39.7724C36.9692 40.8664 38.4529 41.481 40 41.481C41.5471 41.481 43.0308 40.8664 44.1248 39.7724C45.2188 38.6785 45.8333 37.1947 45.8333 35.6476C45.8333 34.1005 45.2188 32.6168 44.1248 31.5228C43.0308 30.4289 41.5471 29.8143 40 29.8143ZM40 33.1476C40.663 33.1476 41.2989 33.411 41.7678 33.8799C42.2366 34.3487 42.5 34.9846 42.5 35.6476C42.5 36.3107 42.2366 36.9466 41.7678 37.4154C41.2989 37.8842 40.663 38.1476 40 38.1476C39.337 38.1476 38.7011 37.8842 38.2322 37.4154C37.7634 36.9466 37.5 36.3107 37.5 35.6476C37.5 34.9846 37.7634 34.3487 38.2322 33.8799C38.7011 33.411 39.337 33.1476 40 33.1476ZM40 47.3143C42.6167 47.3143 46.0667 48.331 47.55 49.5476C45.4833 52.1143 42.8333 54.0643 40 54.8143C37.1667 54.0643 34.5167 52.1143 32.45 49.5476C33.95 48.331 37.3833 47.3143 40 47.3143Z" fill="#F3F3F3"/>
</g>
<rect width="72" height="72" transform="translate(4.33972 84)" fill="#0C92EB"/>
<path d="M47.2667 123.148C47.4 122.048 47.5 120.948 47.5 119.815C47.5 118.681 47.4 117.581 47.2667 116.481H52.9C53.1667 117.548 53.3334 118.665 53.3334 119.815C53.3334 120.965 53.1667 122.081 52.9 123.148M44.3167 132.415C45.3167 130.565 46.0834 128.565 46.6167 126.481H51.5334C49.9334 129.231 47.3834 131.365 44.3167 132.415ZM43.9 123.148H36.1C35.9334 122.048 35.8334 120.948 35.8334 119.815C35.8334 118.681 35.9334 117.565 36.1 116.481H43.9C44.05 117.565 44.1667 118.681 44.1667 119.815C44.1667 120.948 44.05 122.048 43.9 123.148ZM40 133.081C38.6167 131.081 37.5 128.865 36.8167 126.481H43.1834C42.5 128.865 41.3834 131.081 40 133.081ZM33.3334 113.148H28.4667C30.05 110.381 32.6167 108.248 35.6667 107.215C34.6667 109.065 33.9167 111.065 33.3334 113.148ZM28.4667 126.481H33.3334C33.9167 128.565 34.6667 130.565 35.6667 132.415C32.6167 131.365 30.05 129.231 28.4667 126.481ZM27.1 123.148C26.8334 122.081 26.6667 120.965 26.6667 119.815C26.6667 118.665 26.8334 117.548 27.1 116.481H32.7334C32.6 117.581 32.5 118.681 32.5 119.815C32.5 120.948 32.6 122.048 32.7334 123.148M40 106.531C41.3834 108.531 42.5 110.765 43.1834 113.148H36.8167C37.5 110.765 38.6167 108.531 40 106.531ZM51.5334 113.148H46.6167C46.0834 111.065 45.3167 109.065 44.3167 107.215C47.3834 108.265 49.9334 110.381 51.5334 113.148ZM40 103.148C30.7834 103.148 23.3334 110.648 23.3334 119.815C23.3334 124.235 25.0893 128.474 28.2149 131.6C29.7626 133.147 31.5999 134.375 33.622 135.213C35.6441 136.05 37.8113 136.481 40 136.481C44.4203 136.481 48.6595 134.725 51.7851 131.6C54.9108 128.474 56.6667 124.235 56.6667 119.815C56.6667 117.626 56.2356 115.459 55.398 113.437C54.5605 111.414 53.3328 109.577 51.7851 108.03C50.2375 106.482 48.4002 105.254 46.3781 104.417C44.356 103.579 42.1887 103.148 40 103.148Z" fill="#F3F3F3"/>
<rect width="72" height="72" transform="translate(164.34 4)" fill="#0B65AE"/>
<path d="M217.24 45.5665L217.206 45.5832C217.59 46.0498 217.923 46.5665 218.173 47.1165L218.323 47.4332C219.506 50.2498 218.673 53.4998 216.49 55.5332C214.506 57.3498 211.74 57.8332 209.173 57.4998C206.74 57.1998 204.506 55.6665 203.223 53.5498C202.84 52.8998 202.506 52.1665 202.34 51.4165C202.123 50.8332 202.056 50.1998 202.006 49.5832C201.856 46.9165 202.923 44.0832 204.94 42.4165C204.023 44.4332 204.24 46.9498 205.59 48.6998L205.773 48.9165C206.006 49.1165 206.29 49.1665 206.556 49.0665C206.806 48.9665 207.006 48.7165 207.006 48.4498L206.89 48.0498C205.423 44.1665 206.656 39.6665 209.773 37.1165C210.623 36.4165 211.673 35.7832 212.773 35.4998C211.64 37.7665 212.006 40.7332 213.823 42.4998C214.59 43.3332 215.523 43.8165 216.306 44.5498L217.24 45.5665ZM213.44 53.3332L213.423 53.2832C214.173 52.6332 214.59 51.5165 214.556 50.5165L214.506 49.9998C214.173 48.3332 212.723 47.7665 211.79 46.5498L211.073 45.2498C210.706 46.0832 210.673 46.8665 210.823 47.7665C210.99 48.7165 211.356 49.5332 211.173 50.5165C210.906 51.5998 210.056 52.6832 208.573 53.0332C209.406 53.8498 210.756 54.4998 212.106 54.0332C212.54 53.9165 213.09 53.5998 213.44 53.3332ZM185.34 46.6665H198.773L198.673 48.3332C198.673 50.6832 199.273 52.8832 200.34 54.7998V54.9998H185.34V46.6665ZM183.673 36.6665H193.673V44.9998H183.673V36.6665ZM195.34 36.6665H205.34V36.7832C202.29 38.5498 199.99 41.4998 199.09 44.9998H195.34V36.6665ZM185.34 26.6665H198.673V34.9998H185.34V26.6665ZM200.34 26.6665H215.34V34.9998H200.34V26.6665Z" fill="#F3F3F3"/>
<rect width="72" height="72" transform="translate(164.34 164)" fill="#0B80D3"/>
<g opacity="0.3">
<path d="M217.24 205.567L217.206 205.583C217.59 206.05 217.923 206.567 218.173 207.117L218.323 207.433C219.506 210.25 218.673 213.5 216.49 215.533C214.506 217.35 211.74 217.833 209.173 217.5C206.74 217.2 204.506 215.667 203.223 213.55C202.84 212.9 202.506 212.167 202.34 211.417C202.123 210.833 202.056 210.2 202.006 209.583C201.856 206.917 202.923 204.083 204.94 202.417C204.023 204.433 204.24 206.95 205.59 208.7L205.773 208.917C206.006 209.117 206.29 209.167 206.556 209.067C206.806 208.967 207.006 208.717 207.006 208.45L206.89 208.05C205.423 204.167 206.656 199.667 209.773 197.117C210.623 196.417 211.673 195.783 212.773 195.5C211.64 197.767 212.006 200.733 213.823 202.5C214.59 203.333 215.523 203.817 216.306 204.55L217.24 205.567ZM213.44 213.333L213.423 213.283C214.173 212.633 214.59 211.517 214.556 210.517L214.506 210C214.173 208.333 212.723 207.767 211.79 206.55L211.073 205.25C210.706 206.083 210.673 206.867 210.823 207.767C210.99 208.717 211.356 209.533 211.173 210.517C210.906 211.6 210.056 212.683 208.573 213.033C209.406 213.85 210.756 214.5 212.106 214.033C212.54 213.917 213.09 213.6 213.44 213.333ZM185.34 206.667H198.773L198.673 208.333C198.673 210.683 199.273 212.883 200.34 214.8V215H185.34V206.667ZM183.673 196.667H193.673V205H183.673V196.667ZM195.34 196.667H205.34V196.783C202.29 198.55 199.99 201.5 199.09 205H195.34V196.667ZM185.34 186.667H198.673V195H185.34V186.667ZM200.34 186.667H215.34V195H200.34V186.667Z" fill="#F3F3F3"/>
</g>
<rect width="72" height="72" transform="translate(4.33972 164)" fill="#0B80D3"/>
<g opacity="0.3">
<path d="M50.023 187.45C49.8897 187.45 49.7564 187.417 49.6397 187.35C46.4397 185.7 43.673 185 40.3397 185C37.0564 185 33.923 185.783 31.073 187.35C30.673 187.567 30.173 187.417 29.9397 187.017C29.723 186.617 29.873 186.1 30.273 185.883C33.373 184.167 36.773 183.333 40.3397 183.333C43.9064 183.333 47.0064 184.117 50.4064 185.833C50.823 186.083 50.973 186.583 50.7564 186.983C50.6064 187.283 50.3397 187.45 50.023 187.45ZM26.173 196.2C26.0064 196.2 25.8397 196.15 25.6897 196.05C25.3397 195.783 25.223 195.267 25.4897 194.883C27.1397 192.55 29.2397 190.717 31.7397 189.433C37.0064 186.733 43.673 186.717 48.923 189.417C51.423 190.7 53.523 192.5 55.173 194.833C55.4397 195.2 55.3397 195.733 54.973 196C54.5897 196.267 54.073 196.183 53.8064 195.833C52.3064 193.7 50.4064 192.05 48.1564 190.9C43.373 188.45 37.2564 188.45 32.4897 190.917C30.223 192.083 28.323 193.75 26.823 195.833C26.6897 196.083 26.4397 196.2 26.173 196.2ZM36.5897 216.317C36.373 216.317 36.173 216.233 36.0064 216.067C34.5564 214.617 33.773 213.683 32.6564 211.667C31.5064 209.617 30.9064 207.117 30.9064 204.433C30.9064 199.483 35.1397 195.45 40.3397 195.45C45.5397 195.45 49.773 199.483 49.773 204.433C49.773 204.655 49.6852 204.866 49.529 205.023C49.3727 205.179 49.1607 205.267 48.9397 205.267C48.7187 205.267 48.5067 205.179 48.3504 205.023C48.1942 204.866 48.1064 204.655 48.1064 204.433C48.1064 200.4 44.623 197.117 40.3397 197.117C36.0564 197.117 32.573 200.4 32.573 204.433C32.573 206.833 33.1064 209.05 34.123 210.833C35.1897 212.767 35.923 213.583 37.2064 214.883C37.523 215.217 37.523 215.733 37.2064 216.067C37.0064 216.233 36.8064 216.317 36.5897 216.317ZM48.5397 213.233C46.5564 213.233 44.8064 212.733 43.373 211.75C40.8897 210.067 39.4064 207.333 39.4064 204.433C39.4064 204.212 39.4942 204.001 39.6504 203.844C39.8067 203.688 40.0187 203.6 40.2397 203.6C40.4607 203.6 40.6727 203.688 40.829 203.844C40.9852 204.001 41.073 204.212 41.073 204.433C41.073 206.783 42.273 209 44.3064 210.367C45.4897 211.167 46.873 211.55 48.5397 211.55C48.9397 211.55 49.6064 211.5 50.273 211.383C50.723 211.3 51.173 211.6 51.2397 212.067C51.323 212.5 51.023 212.95 50.5564 213.033C49.6064 213.217 48.773 213.233 48.5397 213.233ZM45.1897 216.667C45.123 216.667 45.0397 216.667 44.973 216.667C42.323 215.9 40.5897 214.917 38.773 213.133C36.4397 210.833 35.1564 207.733 35.1564 204.433C35.1564 201.733 37.4564 199.533 40.2897 199.533C43.123 199.533 45.423 201.733 45.423 204.433C45.423 206.217 47.0064 207.667 48.8897 207.667C50.8064 207.667 52.3564 206.217 52.3564 204.433C52.3564 198.15 46.9397 193.05 40.273 193.05C35.5397 193.05 31.173 195.683 29.2564 199.767C28.6064 201.117 28.273 202.7 28.273 204.433C28.273 205.733 28.3897 207.783 29.3897 210.45C29.5564 210.883 29.3397 211.367 28.9064 211.517C28.473 211.667 27.9897 211.45 27.8397 211.033C27.0064 208.85 26.623 206.667 26.623 204.433C26.623 202.433 27.0064 200.617 27.7564 199.033C29.973 194.383 34.8897 191.367 40.273 191.367C47.8397 191.367 54.023 197.217 54.023 204.417C54.023 207.117 51.723 209.317 48.8897 209.317C46.0564 209.317 43.7564 207.117 43.7564 204.417C43.7564 202.633 42.2064 201.183 40.2897 201.183C38.373 201.183 36.823 202.633 36.823 204.417C36.823 207.267 37.923 209.933 39.9397 211.933C41.523 213.5 43.0397 214.367 45.3897 215C45.8397 215.133 46.0897 215.6 45.973 216.033C45.8897 216.417 45.5397 216.667 45.1897 216.667Z" fill="#F3F3F3"/>
</g>
<rect width="72" height="72" transform="translate(84.3397 4)" fill="#0C92EB"/>
<g opacity="0.3">
<path d="M120.34 21.6665L105.34 28.3332V38.3332C105.34 47.5832 111.74 56.2332 120.34 58.3332C128.94 56.2332 135.34 47.5832 135.34 38.3332V28.3332L120.34 21.6665ZM120.34 31.6665C122.673 31.6665 125.006 33.4998 125.006 35.8332V38.3332C126.006 38.3332 127.006 39.3332 127.006 40.4998V46.3332C127.006 47.3332 126.006 48.3332 124.84 48.3332H115.673C114.673 48.3332 113.673 47.3332 113.673 46.1665V40.3332C113.673 39.3332 114.673 38.3332 115.673 38.3332V35.8332C115.673 33.4998 118.006 31.6665 120.34 31.6665ZM120.34 33.6665C119.006 33.6665 117.84 34.4998 117.84 35.8332V38.3332H122.84V35.8332C122.84 34.4998 121.673 33.6665 120.34 33.6665Z" fill="#F3F3F3"/>
</g>
<rect width="72" height="72" transform="translate(84.3397 164)" fill="#0B65AE"/>
<g opacity="0.3">
<path d="M127.267 203.148C127.4 202.048 127.5 200.948 127.5 199.815C127.5 198.681 127.4 197.581 127.267 196.481H132.9C133.167 197.548 133.333 198.665 133.333 199.815C133.333 200.965 133.167 202.081 132.9 203.148M124.317 212.415C125.317 210.565 126.083 208.565 126.617 206.481H131.533C129.933 209.231 127.383 211.365 124.317 212.415ZM123.9 203.148H116.1C115.933 202.048 115.833 200.948 115.833 199.815C115.833 198.681 115.933 197.565 116.1 196.481H123.9C124.05 197.565 124.167 198.681 124.167 199.815C124.167 200.948 124.05 202.048 123.9 203.148ZM120 213.081C118.617 211.081 117.5 208.865 116.817 206.481H123.183C122.5 208.865 121.383 211.081 120 213.081ZM113.333 193.148H108.467C110.05 190.381 112.617 188.248 115.667 187.215C114.667 189.065 113.917 191.065 113.333 193.148ZM108.467 206.481H113.333C113.917 208.565 114.667 210.565 115.667 212.415C112.617 211.365 110.05 209.231 108.467 206.481ZM107.1 203.148C106.833 202.081 106.667 200.965 106.667 199.815C106.667 198.665 106.833 197.548 107.1 196.481H112.733C112.6 197.581 112.5 198.681 112.5 199.815C112.5 200.948 112.6 202.048 112.733 203.148M120 186.531C121.383 188.531 122.5 190.765 123.183 193.148H116.817C117.5 190.765 118.617 188.531 120 186.531ZM131.533 193.148H126.617C126.083 191.065 125.317 189.065 124.317 187.215C127.383 188.265 129.933 190.381 131.533 193.148ZM120 183.148C110.783 183.148 103.333 190.648 103.333 199.815C103.333 204.235 105.089 208.474 108.215 211.6C109.763 213.147 111.6 214.375 113.622 215.213C115.644 216.05 117.811 216.481 120 216.481C124.42 216.481 128.66 214.725 131.785 211.6C134.911 208.474 136.667 204.235 136.667 199.815C136.667 197.626 136.236 195.459 135.398 193.437C134.56 191.414 133.333 189.577 131.785 188.03C130.238 186.482 128.4 185.254 126.378 184.417C124.356 183.579 122.189 183.148 120 183.148Z" fill="#F3F3F3"/>
</g>
<defs>
<clipPath id="clip0_514_7603">
<rect width="72" height="72" fill="white" transform="translate(164.34 84)"/>
</clipPath>
</defs>
</svg>
