<svg width="240" height="240" viewBox="0 0 240 240" fill="none" xmlns="http://www.w3.org/2000/svg">
<rect width="72" height="72" transform="translate(164.34 84)" fill="#0C92EB"/>
<g opacity="0.3">
<path d="M212.123 108.217L209.773 110.567C212.173 112.983 213.673 116.317 213.673 120C213.673 123.536 212.268 126.928 209.768 129.428C207.267 131.929 203.876 133.333 200.34 133.333C196.804 133.333 193.412 131.929 190.912 129.428C188.411 126.928 187.006 123.536 187.006 120C187.006 113.2 192.09 107.6 198.673 106.783V110.15C193.94 110.95 190.34 115.05 190.34 120C190.34 122.652 191.393 125.196 193.269 127.071C195.144 128.947 197.688 130 200.34 130C202.992 130 205.535 128.947 207.411 127.071C209.286 125.196 210.34 122.652 210.34 120C210.34 117.233 209.223 114.733 207.406 112.933L205.056 115.283C206.256 116.5 207.006 118.167 207.006 120C207.006 121.768 206.304 123.464 205.054 124.714C203.804 125.964 202.108 126.667 200.34 126.667C198.572 126.667 196.876 125.964 195.626 124.714C194.375 123.464 193.673 121.768 193.673 120C193.673 116.9 195.806 114.317 198.673 113.567V117.133C197.673 117.717 197.006 118.767 197.006 120C197.006 120.884 197.358 121.732 197.983 122.357C198.608 122.982 199.456 123.333 200.34 123.333C201.224 123.333 202.072 122.982 202.697 122.357C203.322 121.732 203.673 120.884 203.673 120C203.673 118.767 203.006 117.7 202.006 117.133V103.333H200.34C198.151 103.333 195.984 103.765 193.962 104.602C191.94 105.44 190.102 106.667 188.555 108.215C185.429 111.341 183.673 115.58 183.673 120C183.673 124.42 185.429 128.66 188.555 131.785C190.102 133.333 191.94 134.561 193.962 135.398C195.984 136.236 198.151 136.667 200.34 136.667C204.76 136.667 208.999 134.911 212.125 131.785C215.25 128.66 217.006 124.42 217.006 120C217.006 115.4 215.14 111.233 212.123 108.217Z" fill="#F3F3F3"/>
</g>
<g clip-path="url(#clip0_552_6905)">
<rect width="72" height="72" transform="translate(84.3397 4)" fill="#0B80D3"/>
<path d="M130.023 27.4502C129.89 27.4502 129.756 27.4168 129.64 27.3502C126.44 25.7002 123.673 25.0002 120.34 25.0002C117.056 25.0002 113.923 25.7835 111.073 27.3502C110.673 27.5668 110.173 27.4168 109.94 27.0168C109.723 26.6168 109.873 26.1002 110.273 25.8835C113.373 24.1668 116.773 23.3335 120.34 23.3335C123.906 23.3335 127.006 24.1168 130.406 25.8335C130.823 26.0835 130.973 26.5835 130.756 26.9835C130.606 27.2835 130.34 27.4502 130.023 27.4502ZM106.173 36.2002C106.006 36.2002 105.84 36.1502 105.69 36.0502C105.34 35.7835 105.223 35.2668 105.49 34.8835C107.14 32.5502 109.24 30.7168 111.74 29.4335C117.006 26.7335 123.673 26.7168 128.923 29.4168C131.423 30.7002 133.523 32.5002 135.173 34.8335C135.44 35.2002 135.34 35.7335 134.973 36.0002C134.59 36.2668 134.073 36.1835 133.806 35.8335C132.306 33.7002 130.406 32.0502 128.156 30.9002C123.373 28.4502 117.256 28.4502 112.49 30.9168C110.223 32.0835 108.323 33.7502 106.823 35.8335C106.69 36.0835 106.44 36.2002 106.173 36.2002ZM116.59 56.3168C116.373 56.3168 116.173 56.2335 116.006 56.0668C114.556 54.6168 113.773 53.6835 112.656 51.6668C111.506 49.6168 110.906 47.1168 110.906 44.4335C110.906 39.4835 115.14 35.4502 120.34 35.4502C125.54 35.4502 129.773 39.4835 129.773 44.4335C129.773 44.6545 129.685 44.8665 129.529 45.0228C129.373 45.179 129.161 45.2668 128.94 45.2668C128.719 45.2668 128.507 45.179 128.35 45.0228C128.194 44.8665 128.106 44.6545 128.106 44.4335C128.106 40.4002 124.623 37.1168 120.34 37.1168C116.056 37.1168 112.573 40.4002 112.573 44.4335C112.573 46.8335 113.106 49.0502 114.123 50.8335C115.19 52.7668 115.923 53.5835 117.206 54.8835C117.523 55.2168 117.523 55.7335 117.206 56.0668C117.006 56.2335 116.806 56.3168 116.59 56.3168ZM128.54 53.2335C126.556 53.2335 124.806 52.7335 123.373 51.7502C120.89 50.0668 119.406 47.3335 119.406 44.4335C119.406 44.2125 119.494 44.0005 119.65 43.8442C119.807 43.688 120.019 43.6002 120.24 43.6002C120.461 43.6002 120.673 43.688 120.829 43.8442C120.985 44.0005 121.073 44.2125 121.073 44.4335C121.073 46.7835 122.273 49.0002 124.306 50.3668C125.49 51.1668 126.873 51.5502 128.54 51.5502C128.94 51.5502 129.606 51.5002 130.273 51.3835C130.723 51.3002 131.173 51.6002 131.24 52.0668C131.323 52.5002 131.023 52.9502 130.556 53.0335C129.606 53.2168 128.773 53.2335 128.54 53.2335ZM125.19 56.6668C125.123 56.6668 125.04 56.6668 124.973 56.6668C122.323 55.9002 120.59 54.9168 118.773 53.1335C116.44 50.8335 115.156 47.7335 115.156 44.4335C115.156 41.7335 117.456 39.5335 120.29 39.5335C123.123 39.5335 125.423 41.7335 125.423 44.4335C125.423 46.2168 127.006 47.6668 128.89 47.6668C130.806 47.6668 132.356 46.2168 132.356 44.4335C132.356 38.1502 126.94 33.0502 120.273 33.0502C115.54 33.0502 111.173 35.6835 109.256 39.7668C108.606 41.1168 108.273 42.7002 108.273 44.4335C108.273 45.7335 108.39 47.7835 109.39 50.4502C109.556 50.8835 109.34 51.3668 108.906 51.5168C108.473 51.6668 107.99 51.4502 107.84 51.0335C107.006 48.8502 106.623 46.6668 106.623 44.4335C106.623 42.4335 107.006 40.6168 107.756 39.0335C109.973 34.3835 114.89 31.3668 120.273 31.3668C127.84 31.3668 134.023 37.2168 134.023 44.4168C134.023 47.1168 131.723 49.3168 128.89 49.3168C126.056 49.3168 123.756 47.1168 123.756 44.4168C123.756 42.6335 122.206 41.1835 120.29 41.1835C118.373 41.1835 116.823 42.6335 116.823 44.4168C116.823 47.2668 117.923 49.9335 119.94 51.9335C121.523 53.5002 123.04 54.3668 125.39 55.0002C125.84 55.1335 126.09 55.6002 125.973 56.0335C125.89 56.4168 125.54 56.6668 125.19 56.6668Z" fill="#F3F3F3"/>
</g>
<rect width="72" height="72" transform="translate(4.33972 4)" fill="#0B65AE"/>
<path d="M40 21.481L25 28.1476V38.1476C25 47.3976 31.4 56.0476 40 58.1476C48.6 56.0476 55 47.3976 55 38.1476V28.1476L40 21.481ZM40 25.1143L51.6667 30.3143V38.5143C51.6667 41.3476 50.8333 44.231 49.4167 46.7643C46.6667 44.7143 42.1 43.981 40 43.981C37.9 43.981 33.3333 44.7143 30.5833 46.7643C29.1667 44.231 28.3333 41.3476 28.3333 38.5143V30.3143L40 25.1143ZM40 29.8143C38.4529 29.8143 36.9692 30.4289 35.8752 31.5228C34.7812 32.6168 34.1667 34.1005 34.1667 35.6476C34.1667 37.1947 34.7812 38.6785 35.8752 39.7724C36.9692 40.8664 38.4529 41.481 40 41.481C41.5471 41.481 43.0308 40.8664 44.1248 39.7724C45.2188 38.6785 45.8333 37.1947 45.8333 35.6476C45.8333 34.1005 45.2188 32.6168 44.1248 31.5228C43.0308 30.4289 41.5471 29.8143 40 29.8143ZM40 33.1476C40.663 33.1476 41.2989 33.411 41.7678 33.8799C42.2366 34.3487 42.5 34.9846 42.5 35.6476C42.5 36.3107 42.2366 36.9466 41.7678 37.4154C41.2989 37.8842 40.663 38.1476 40 38.1476C39.337 38.1476 38.7011 37.8842 38.2322 37.4154C37.7634 36.9466 37.5 36.3107 37.5 35.6476C37.5 34.9846 37.7634 34.3487 38.2322 33.8799C38.7011 33.411 39.337 33.1476 40 33.1476ZM40 47.3143C42.6167 47.3143 46.0667 48.331 47.55 49.5476C45.4833 52.1143 42.8333 54.0643 40 54.8143C37.1667 54.0643 34.5167 52.1143 32.45 49.5476C33.95 48.331 37.3833 47.3143 40 47.3143Z" fill="#F3F3F3"/>
<rect width="72" height="72" transform="translate(164.34 164)" fill="#0C92EB"/>
<path d="M207.267 203.148C207.4 202.048 207.5 200.948 207.5 199.815C207.5 198.681 207.4 197.581 207.267 196.481H212.9C213.167 197.548 213.333 198.665 213.333 199.815C213.333 200.965 213.167 202.081 212.9 203.148M204.317 212.415C205.317 210.565 206.083 208.565 206.617 206.481H211.533C209.933 209.231 207.383 211.365 204.317 212.415ZM203.9 203.148H196.1C195.933 202.048 195.833 200.948 195.833 199.815C195.833 198.681 195.933 197.565 196.1 196.481H203.9C204.05 197.565 204.167 198.681 204.167 199.815C204.167 200.948 204.05 202.048 203.9 203.148ZM200 213.081C198.617 211.081 197.5 208.865 196.817 206.481H203.183C202.5 208.865 201.383 211.081 200 213.081ZM193.333 193.148H188.467C190.05 190.381 192.617 188.248 195.667 187.215C194.667 189.065 193.917 191.065 193.333 193.148ZM188.467 206.481H193.333C193.917 208.565 194.667 210.565 195.667 212.415C192.617 211.365 190.05 209.231 188.467 206.481ZM187.1 203.148C186.833 202.081 186.667 200.965 186.667 199.815C186.667 198.665 186.833 197.548 187.1 196.481H192.733C192.6 197.581 192.5 198.681 192.5 199.815C192.5 200.948 192.6 202.048 192.733 203.148M200 186.531C201.383 188.531 202.5 190.765 203.183 193.148H196.817C197.5 190.765 198.617 188.531 200 186.531ZM211.533 193.148H206.617C206.083 191.065 205.317 189.065 204.317 187.215C207.383 188.265 209.933 190.381 211.533 193.148ZM200 183.148C190.783 183.148 183.333 190.648 183.333 199.815C183.333 204.235 185.089 208.474 188.215 211.6C189.763 213.147 191.6 214.375 193.622 215.213C195.644 216.05 197.811 216.481 200 216.481C204.42 216.481 208.66 214.725 211.785 211.6C214.911 208.474 216.667 204.235 216.667 199.815C216.667 197.626 216.236 195.459 215.398 193.437C214.56 191.414 213.333 189.577 211.785 188.03C210.238 186.482 208.4 185.254 206.378 184.417C204.356 183.579 202.189 183.148 200 183.148Z" fill="#F3F3F3"/>
<rect width="72" height="72" transform="translate(4.33972 84)" fill="#0B65AE"/>
<g opacity="0.3">
<path d="M57.2398 125.567L57.2064 125.583C57.5898 126.05 57.9231 126.567 58.1731 127.117L58.3231 127.433C59.5064 130.25 58.6731 133.5 56.4898 135.533C54.5064 137.35 51.7398 137.833 49.1731 137.5C46.7398 137.2 44.5064 135.667 43.2231 133.55C42.8398 132.9 42.5064 132.167 42.3398 131.417C42.1231 130.833 42.0564 130.2 42.0064 129.583C41.8564 126.917 42.9231 124.083 44.9398 122.417C44.0231 124.433 44.2398 126.95 45.5898 128.7L45.7731 128.917C46.0064 129.117 46.2898 129.167 46.5564 129.067C46.8064 128.967 47.0064 128.717 47.0064 128.45L46.8898 128.05C45.4231 124.167 46.6564 119.667 49.7731 117.117C50.6231 116.417 51.6731 115.783 52.7731 115.5C51.6398 117.767 52.0064 120.733 53.8231 122.5C54.5898 123.333 55.5231 123.817 56.3064 124.55L57.2398 125.567ZM53.4398 133.333L53.4231 133.283C54.1731 132.633 54.5898 131.517 54.5564 130.517L54.5064 130C54.1731 128.333 52.7231 127.767 51.7898 126.55L51.0731 125.25C50.7064 126.083 50.6731 126.867 50.8231 127.767C50.9898 128.717 51.3564 129.533 51.1731 130.517C50.9064 131.6 50.0564 132.683 48.5731 133.033C49.4064 133.85 50.7564 134.5 52.1064 134.033C52.5398 133.917 53.0898 133.6 53.4398 133.333ZM25.3398 126.667H38.7731L38.6731 128.333C38.6731 130.683 39.2731 132.883 40.3398 134.8V135H25.3398V126.667ZM23.6731 116.667H33.6731V125H23.6731V116.667ZM35.3398 116.667H45.3398V116.783C42.2898 118.55 39.9898 121.5 39.0898 125H35.3398V116.667ZM25.3398 106.667H38.6731V115H25.3398V106.667ZM40.3398 106.667H55.3398V115H40.3398V106.667Z" fill="#F3F3F3"/>
</g>
<rect width="72" height="72" transform="translate(84.3397 84)" fill="#0B80D3"/>
<g opacity="0.3">
<path d="M137.24 125.567L137.206 125.583C137.59 126.05 137.923 126.567 138.173 127.117L138.323 127.433C139.506 130.25 138.673 133.5 136.49 135.533C134.506 137.35 131.74 137.833 129.173 137.5C126.74 137.2 124.506 135.667 123.223 133.55C122.84 132.9 122.506 132.167 122.34 131.417C122.123 130.833 122.056 130.2 122.006 129.583C121.856 126.917 122.923 124.083 124.94 122.417C124.023 124.433 124.24 126.95 125.59 128.7L125.773 128.917C126.006 129.117 126.29 129.167 126.556 129.067C126.806 128.967 127.006 128.717 127.006 128.45L126.89 128.05C125.423 124.167 126.656 119.667 129.773 117.117C130.623 116.417 131.673 115.783 132.773 115.5C131.64 117.767 132.006 120.733 133.823 122.5C134.59 123.333 135.523 123.817 136.306 124.55L137.24 125.567ZM133.44 133.333L133.423 133.283C134.173 132.633 134.59 131.517 134.556 130.517L134.506 130C134.173 128.333 132.723 127.767 131.79 126.55L131.073 125.25C130.706 126.083 130.673 126.867 130.823 127.767C130.99 128.717 131.356 129.533 131.173 130.517C130.906 131.6 130.056 132.683 128.573 133.033C129.406 133.85 130.756 134.5 132.106 134.033C132.54 133.917 133.09 133.6 133.44 133.333ZM105.34 126.667H118.773L118.673 128.333C118.673 130.683 119.273 132.883 120.34 134.8V135H105.34V126.667ZM103.673 116.667H113.673V125H103.673V116.667ZM115.34 116.667H125.34V116.783C122.29 118.55 119.99 121.5 119.09 125H115.34V116.667ZM105.34 106.667H118.673V115H105.34V106.667ZM120.34 106.667H135.34V115H120.34V106.667Z" fill="#F3F3F3"/>
</g>
<rect width="72" height="72" transform="translate(84.3397 164)" fill="#0B80D3"/>
<g opacity="0.3">
<path d="M130.023 187.45C129.89 187.45 129.756 187.417 129.64 187.35C126.44 185.7 123.673 185 120.34 185C117.056 185 113.923 185.783 111.073 187.35C110.673 187.567 110.173 187.417 109.94 187.017C109.723 186.617 109.873 186.1 110.273 185.883C113.373 184.167 116.773 183.333 120.34 183.333C123.906 183.333 127.006 184.117 130.406 185.833C130.823 186.083 130.973 186.583 130.756 186.983C130.606 187.283 130.34 187.45 130.023 187.45ZM106.173 196.2C106.006 196.2 105.84 196.15 105.69 196.05C105.34 195.783 105.223 195.267 105.49 194.883C107.14 192.55 109.24 190.717 111.74 189.433C117.006 186.733 123.673 186.717 128.923 189.417C131.423 190.7 133.523 192.5 135.173 194.833C135.44 195.2 135.34 195.733 134.973 196C134.59 196.267 134.073 196.183 133.806 195.833C132.306 193.7 130.406 192.05 128.156 190.9C123.373 188.45 117.256 188.45 112.49 190.917C110.223 192.083 108.323 193.75 106.823 195.833C106.69 196.083 106.44 196.2 106.173 196.2ZM116.59 216.317C116.373 216.317 116.173 216.233 116.006 216.067C114.556 214.617 113.773 213.683 112.656 211.667C111.506 209.617 110.906 207.117 110.906 204.433C110.906 199.483 115.14 195.45 120.34 195.45C125.54 195.45 129.773 199.483 129.773 204.433C129.773 204.655 129.685 204.866 129.529 205.023C129.373 205.179 129.161 205.267 128.94 205.267C128.719 205.267 128.507 205.179 128.35 205.023C128.194 204.866 128.106 204.655 128.106 204.433C128.106 200.4 124.623 197.117 120.34 197.117C116.056 197.117 112.573 200.4 112.573 204.433C112.573 206.833 113.106 209.05 114.123 210.833C115.19 212.767 115.923 213.583 117.206 214.883C117.523 215.217 117.523 215.733 117.206 216.067C117.006 216.233 116.806 216.317 116.59 216.317ZM128.54 213.233C126.556 213.233 124.806 212.733 123.373 211.75C120.89 210.067 119.406 207.333 119.406 204.433C119.406 204.212 119.494 204.001 119.65 203.844C119.807 203.688 120.019 203.6 120.24 203.6C120.461 203.6 120.673 203.688 120.829 203.844C120.985 204.001 121.073 204.212 121.073 204.433C121.073 206.783 122.273 209 124.306 210.367C125.49 211.167 126.873 211.55 128.54 211.55C128.94 211.55 129.606 211.5 130.273 211.383C130.723 211.3 131.173 211.6 131.24 212.067C131.323 212.5 131.023 212.95 130.556 213.033C129.606 213.217 128.773 213.233 128.54 213.233ZM125.19 216.667C125.123 216.667 125.04 216.667 124.973 216.667C122.323 215.9 120.59 214.917 118.773 213.133C116.44 210.833 115.156 207.733 115.156 204.433C115.156 201.733 117.456 199.533 120.29 199.533C123.123 199.533 125.423 201.733 125.423 204.433C125.423 206.217 127.006 207.667 128.89 207.667C130.806 207.667 132.356 206.217 132.356 204.433C132.356 198.15 126.94 193.05 120.273 193.05C115.54 193.05 111.173 195.683 109.256 199.767C108.606 201.117 108.273 202.7 108.273 204.433C108.273 205.733 108.39 207.783 109.39 210.45C109.556 210.883 109.34 211.367 108.906 211.517C108.473 211.667 107.99 211.45 107.84 211.033C107.006 208.85 106.623 206.667 106.623 204.433C106.623 202.433 107.006 200.617 107.756 199.033C109.973 194.383 114.89 191.367 120.273 191.367C127.84 191.367 134.023 197.217 134.023 204.417C134.023 207.117 131.723 209.317 128.89 209.317C126.056 209.317 123.756 207.117 123.756 204.417C123.756 202.633 122.206 201.183 120.29 201.183C118.373 201.183 116.823 202.633 116.823 204.417C116.823 207.267 117.923 209.933 119.94 211.933C121.523 213.5 123.04 214.367 125.39 215C125.84 215.133 126.09 215.6 125.973 216.033C125.89 216.417 125.54 216.667 125.19 216.667Z" fill="#F3F3F3"/>
</g>
<rect width="72" height="72" transform="translate(164.34 4)" fill="#0C92EB"/>
<g opacity="0.3">
<path d="M200.34 21.6665L185.34 28.3332V38.3332C185.34 47.5832 191.74 56.2332 200.34 58.3332C208.94 56.2332 215.34 47.5832 215.34 38.3332V28.3332L200.34 21.6665ZM200.34 31.6665C202.673 31.6665 205.006 33.4998 205.006 35.8332V38.3332C206.006 38.3332 207.006 39.3332 207.006 40.4998V46.3332C207.006 47.3332 206.006 48.3332 204.84 48.3332H195.673C194.673 48.3332 193.673 47.3332 193.673 46.1665V40.3332C193.673 39.3332 194.673 38.3332 195.673 38.3332V35.8332C195.673 33.4998 198.006 31.6665 200.34 31.6665ZM200.34 33.6665C199.006 33.6665 197.84 34.4998 197.84 35.8332V38.3332H202.84V35.8332C202.84 34.4998 201.673 33.6665 200.34 33.6665Z" fill="#F3F3F3"/>
</g>
<rect width="72" height="72" transform="translate(4.33972 164)" fill="#0B65AE"/>
<g opacity="0.3">
<path d="M47.2667 203.148C47.4 202.048 47.5 200.948 47.5 199.815C47.5 198.681 47.4 197.581 47.2667 196.481H52.9C53.1667 197.548 53.3334 198.665 53.3334 199.815C53.3334 200.965 53.1667 202.081 52.9 203.148M44.3167 212.415C45.3167 210.565 46.0834 208.565 46.6167 206.481H51.5334C49.9334 209.231 47.3834 211.365 44.3167 212.415ZM43.9 203.148H36.1C35.9334 202.048 35.8334 200.948 35.8334 199.815C35.8334 198.681 35.9334 197.565 36.1 196.481H43.9C44.05 197.565 44.1667 198.681 44.1667 199.815C44.1667 200.948 44.05 202.048 43.9 203.148ZM40 213.081C38.6167 211.081 37.5 208.865 36.8167 206.481H43.1834C42.5 208.865 41.3834 211.081 40 213.081ZM33.3334 193.148H28.4667C30.05 190.381 32.6167 188.248 35.6667 187.215C34.6667 189.065 33.9167 191.065 33.3334 193.148ZM28.4667 206.481H33.3334C33.9167 208.565 34.6667 210.565 35.6667 212.415C32.6167 211.365 30.05 209.231 28.4667 206.481ZM27.1 203.148C26.8334 202.081 26.6667 200.965 26.6667 199.815C26.6667 198.665 26.8334 197.548 27.1 196.481H32.7334C32.6 197.581 32.5 198.681 32.5 199.815C32.5 200.948 32.6 202.048 32.7334 203.148M40 186.531C41.3834 188.531 42.5 190.765 43.1834 193.148H36.8167C37.5 190.765 38.6167 188.531 40 186.531ZM51.5334 193.148H46.6167C46.0834 191.065 45.3167 189.065 44.3167 187.215C47.3834 188.265 49.9334 190.381 51.5334 193.148ZM40 183.148C30.7834 183.148 23.3334 190.648 23.3334 199.815C23.3334 204.235 25.0893 208.474 28.2149 211.6C29.7626 213.147 31.5999 214.375 33.622 215.213C35.6441 216.05 37.8113 216.481 40 216.481C44.4203 216.481 48.6595 214.725 51.7851 211.6C54.9108 208.474 56.6667 204.235 56.6667 199.815C56.6667 197.626 56.2356 195.459 55.398 193.437C54.5605 191.414 53.3328 189.577 51.7851 188.03C50.2375 186.482 48.4002 185.254 46.3781 184.417C44.356 183.579 42.1887 183.148 40 183.148Z" fill="#F3F3F3"/>
</g>
<defs>
<clipPath id="clip0_552_6905">
<rect width="72" height="72" fill="white" transform="translate(84.3397 4)"/>
</clipPath>
</defs>
</svg>
