<svg width="240" height="240" viewBox="0 0 240 240" fill="none" xmlns="http://www.w3.org/2000/svg">
<rect width="72" height="72" transform="translate(164.34 4)" fill="#0C92EB"/>
<path d="M212.123 28.2168L209.773 30.5668C212.173 32.9835 213.673 36.3168 213.673 40.0002C213.673 43.5364 212.268 46.9278 209.768 49.4283C207.267 51.9287 203.876 53.3335 200.34 53.3335C196.804 53.3335 193.412 51.9287 190.912 49.4283C188.411 46.9278 187.006 43.5364 187.006 40.0002C187.006 33.2002 192.09 27.6002 198.673 26.7835V30.1502C193.94 30.9502 190.34 35.0502 190.34 40.0002C190.34 42.6523 191.393 45.1959 193.269 47.0712C195.144 48.9466 197.688 50.0002 200.34 50.0002C202.992 50.0002 205.535 48.9466 207.411 47.0712C209.286 45.1959 210.34 42.6523 210.34 40.0002C210.34 37.2335 209.223 34.7335 207.406 32.9335L205.056 35.2835C206.256 36.5002 207.006 38.1668 207.006 40.0002C207.006 41.7683 206.304 43.464 205.054 44.7142C203.804 45.9645 202.108 46.6668 200.34 46.6668C198.572 46.6668 196.876 45.9645 195.626 44.7142C194.375 43.464 193.673 41.7683 193.673 40.0002C193.673 36.9002 195.806 34.3168 198.673 33.5668V37.1335C197.673 37.7168 197.006 38.7668 197.006 40.0002C197.006 40.8842 197.358 41.7321 197.983 42.3572C198.608 42.9823 199.456 43.3335 200.34 43.3335C201.224 43.3335 202.072 42.9823 202.697 42.3572C203.322 41.7321 203.673 40.8842 203.673 40.0002C203.673 38.7668 203.006 37.7002 202.006 37.1335V23.3335H200.34C198.151 23.3335 195.984 23.7646 193.962 24.6022C191.94 25.4397 190.102 26.6674 188.555 28.215C185.429 31.3407 183.673 35.5799 183.673 40.0002C183.673 44.4204 185.429 48.6597 188.555 51.7853C190.102 53.3329 191.94 54.5606 193.962 55.3982C195.984 56.2357 198.151 56.6668 200.34 56.6668C204.76 56.6668 208.999 54.9109 212.125 51.7853C215.25 48.6597 217.006 44.4204 217.006 40.0002C217.006 35.4002 215.14 31.2335 212.123 28.2168Z" fill="#F3F3F3"/>
<g clip-path="url(#clip0_552_6876)">
<rect width="72" height="72" transform="translate(4.33972 4)" fill="#0B80D3"/>
<g opacity="0.3">
<path d="M50.023 27.4502C49.8897 27.4502 49.7564 27.4168 49.6397 27.3502C46.4397 25.7002 43.673 25.0002 40.3397 25.0002C37.0564 25.0002 33.923 25.7835 31.073 27.3502C30.673 27.5668 30.173 27.4168 29.9397 27.0168C29.723 26.6168 29.873 26.1002 30.273 25.8835C33.373 24.1668 36.773 23.3335 40.3397 23.3335C43.9064 23.3335 47.0064 24.1168 50.4064 25.8335C50.823 26.0835 50.973 26.5835 50.7564 26.9835C50.6064 27.2835 50.3397 27.4502 50.023 27.4502ZM26.173 36.2002C26.0064 36.2002 25.8397 36.1502 25.6897 36.0502C25.3397 35.7835 25.223 35.2668 25.4897 34.8835C27.1397 32.5502 29.2397 30.7168 31.7397 29.4335C37.0064 26.7335 43.673 26.7168 48.923 29.4168C51.423 30.7002 53.523 32.5002 55.173 34.8335C55.4397 35.2002 55.3397 35.7335 54.973 36.0002C54.5897 36.2668 54.073 36.1835 53.8064 35.8335C52.3064 33.7002 50.4064 32.0502 48.1564 30.9002C43.373 28.4502 37.2564 28.4502 32.4897 30.9168C30.223 32.0835 28.323 33.7502 26.823 35.8335C26.6897 36.0835 26.4397 36.2002 26.173 36.2002ZM36.5897 56.3168C36.373 56.3168 36.173 56.2335 36.0064 56.0668C34.5564 54.6168 33.773 53.6835 32.6564 51.6668C31.5064 49.6168 30.9064 47.1168 30.9064 44.4335C30.9064 39.4835 35.1397 35.4502 40.3397 35.4502C45.5397 35.4502 49.773 39.4835 49.773 44.4335C49.773 44.6545 49.6852 44.8665 49.529 45.0228C49.3727 45.179 49.1607 45.2668 48.9397 45.2668C48.7187 45.2668 48.5067 45.179 48.3504 45.0228C48.1942 44.8665 48.1064 44.6545 48.1064 44.4335C48.1064 40.4002 44.623 37.1168 40.3397 37.1168C36.0564 37.1168 32.573 40.4002 32.573 44.4335C32.573 46.8335 33.1064 49.0502 34.123 50.8335C35.1897 52.7668 35.923 53.5835 37.2064 54.8835C37.523 55.2168 37.523 55.7335 37.2064 56.0668C37.0064 56.2335 36.8064 56.3168 36.5897 56.3168ZM48.5397 53.2335C46.5564 53.2335 44.8064 52.7335 43.373 51.7502C40.8897 50.0668 39.4064 47.3335 39.4064 44.4335C39.4064 44.2125 39.4942 44.0005 39.6504 43.8442C39.8067 43.688 40.0187 43.6002 40.2397 43.6002C40.4607 43.6002 40.6727 43.688 40.829 43.8442C40.9852 44.0005 41.073 44.2125 41.073 44.4335C41.073 46.7835 42.273 49.0002 44.3064 50.3668C45.4897 51.1668 46.873 51.5502 48.5397 51.5502C48.9397 51.5502 49.6064 51.5002 50.273 51.3835C50.723 51.3002 51.173 51.6002 51.2397 52.0668C51.323 52.5002 51.023 52.9502 50.5564 53.0335C49.6064 53.2168 48.773 53.2335 48.5397 53.2335ZM45.1897 56.6668C45.123 56.6668 45.0397 56.6668 44.973 56.6668C42.323 55.9002 40.5897 54.9168 38.773 53.1335C36.4397 50.8335 35.1564 47.7335 35.1564 44.4335C35.1564 41.7335 37.4564 39.5335 40.2897 39.5335C43.123 39.5335 45.423 41.7335 45.423 44.4335C45.423 46.2168 47.0064 47.6668 48.8897 47.6668C50.8064 47.6668 52.3564 46.2168 52.3564 44.4335C52.3564 38.1502 46.9397 33.0502 40.273 33.0502C35.5397 33.0502 31.173 35.6835 29.2564 39.7668C28.6064 41.1168 28.273 42.7002 28.273 44.4335C28.273 45.7335 28.3897 47.7835 29.3897 50.4502C29.5564 50.8835 29.3397 51.3668 28.9064 51.5168C28.473 51.6668 27.9897 51.4502 27.8397 51.0335C27.0064 48.8502 26.623 46.6668 26.623 44.4335C26.623 42.4335 27.0064 40.6168 27.7564 39.0335C29.973 34.3835 34.8897 31.3668 40.273 31.3668C47.8397 31.3668 54.023 37.2168 54.023 44.4168C54.023 47.1168 51.723 49.3168 48.8897 49.3168C46.0564 49.3168 43.7564 47.1168 43.7564 44.4168C43.7564 42.6335 42.2064 41.1835 40.2897 41.1835C38.373 41.1835 36.823 42.6335 36.823 44.4168C36.823 47.2668 37.923 49.9335 39.9397 51.9335C41.523 53.5002 43.0397 54.3668 45.3897 55.0002C45.8397 55.1335 46.0897 55.6002 45.973 56.0335C45.8897 56.4168 45.5397 56.6668 45.1897 56.6668Z" fill="#F3F3F3"/>
</g>
</g>
<rect width="72" height="72" transform="translate(84.3397 4)" fill="#0B65AE"/>
<g opacity="0.3">
<path d="M120 21.481L105 28.1476V38.1476C105 47.3976 111.4 56.0476 120 58.1476C128.6 56.0476 135 47.3976 135 38.1476V28.1476L120 21.481ZM120 25.1143L131.667 30.3143V38.5143C131.667 41.3476 130.833 44.231 129.417 46.7643C126.667 44.7143 122.1 43.981 120 43.981C117.9 43.981 113.333 44.7143 110.583 46.7643C109.167 44.231 108.333 41.3476 108.333 38.5143V30.3143L120 25.1143ZM120 29.8143C118.453 29.8143 116.969 30.4289 115.875 31.5228C114.781 32.6168 114.167 34.1005 114.167 35.6476C114.167 37.1947 114.781 38.6785 115.875 39.7724C116.969 40.8664 118.453 41.481 120 41.481C121.547 41.481 123.031 40.8664 124.125 39.7724C125.219 38.6785 125.833 37.1947 125.833 35.6476C125.833 34.1005 125.219 32.6168 124.125 31.5228C123.031 30.4289 121.547 29.8143 120 29.8143ZM120 33.1476C120.663 33.1476 121.299 33.411 121.768 33.8799C122.237 34.3487 122.5 34.9846 122.5 35.6476C122.5 36.3107 122.237 36.9466 121.768 37.4154C121.299 37.8842 120.663 38.1476 120 38.1476C119.337 38.1476 118.701 37.8842 118.232 37.4154C117.763 36.9466 117.5 36.3107 117.5 35.6476C117.5 34.9846 117.763 34.3487 118.232 33.8799C118.701 33.411 119.337 33.1476 120 33.1476ZM120 47.3143C122.617 47.3143 126.067 48.331 127.55 49.5476C125.483 52.1143 122.833 54.0643 120 54.8143C117.167 54.0643 114.517 52.1143 112.45 49.5476C113.95 48.331 117.383 47.3143 120 47.3143Z" fill="#F3F3F3"/>
</g>
<rect width="72" height="72" transform="translate(84.3397 84)" fill="#0C92EB"/>
<g opacity="0.3">
<path d="M127.267 123.148C127.4 122.048 127.5 120.948 127.5 119.815C127.5 118.681 127.4 117.581 127.267 116.481H132.9C133.167 117.548 133.333 118.665 133.333 119.815C133.333 120.965 133.167 122.081 132.9 123.148M124.317 132.415C125.317 130.565 126.083 128.565 126.617 126.481H131.533C129.933 129.231 127.383 131.365 124.317 132.415ZM123.9 123.148H116.1C115.933 122.048 115.833 120.948 115.833 119.815C115.833 118.681 115.933 117.565 116.1 116.481H123.9C124.05 117.565 124.167 118.681 124.167 119.815C124.167 120.948 124.05 122.048 123.9 123.148ZM120 133.081C118.617 131.081 117.5 128.865 116.817 126.481H123.183C122.5 128.865 121.383 131.081 120 133.081ZM113.333 113.148H108.467C110.05 110.381 112.617 108.248 115.667 107.215C114.667 109.065 113.917 111.065 113.333 113.148ZM108.467 126.481H113.333C113.917 128.565 114.667 130.565 115.667 132.415C112.617 131.365 110.05 129.231 108.467 126.481ZM107.1 123.148C106.833 122.081 106.667 120.965 106.667 119.815C106.667 118.665 106.833 117.548 107.1 116.481H112.733C112.6 117.581 112.5 118.681 112.5 119.815C112.5 120.948 112.6 122.048 112.733 123.148M120 106.531C121.383 108.531 122.5 110.765 123.183 113.148H116.817C117.5 110.765 118.617 108.531 120 106.531ZM131.533 113.148H126.617C126.083 111.065 125.317 109.065 124.317 107.215C127.383 108.265 129.933 110.381 131.533 113.148ZM120 103.148C110.783 103.148 103.333 110.648 103.333 119.815C103.333 124.235 105.089 128.474 108.215 131.6C109.763 133.147 111.6 134.375 113.622 135.213C115.644 136.05 117.811 136.481 120 136.481C124.42 136.481 128.66 134.725 131.785 131.6C134.911 128.474 136.667 124.235 136.667 119.815C136.667 117.626 136.236 115.459 135.398 113.437C134.56 111.414 133.333 109.577 131.785 108.03C130.238 106.482 128.4 105.254 126.378 104.417C124.356 103.579 122.189 103.148 120 103.148Z" fill="#F3F3F3"/>
</g>
<rect width="72" height="72" transform="translate(4.33972 84)" fill="#0B65AE"/>
<g opacity="0.3">
<path d="M57.2398 125.567L57.2064 125.583C57.5898 126.05 57.9231 126.567 58.1731 127.117L58.3231 127.433C59.5064 130.25 58.6731 133.5 56.4898 135.533C54.5064 137.35 51.7398 137.833 49.1731 137.5C46.7398 137.2 44.5064 135.667 43.2231 133.55C42.8398 132.9 42.5064 132.167 42.3398 131.417C42.1231 130.833 42.0564 130.2 42.0064 129.583C41.8564 126.917 42.9231 124.083 44.9398 122.417C44.0231 124.433 44.2398 126.95 45.5898 128.7L45.7731 128.917C46.0064 129.117 46.2898 129.167 46.5564 129.067C46.8064 128.967 47.0064 128.717 47.0064 128.45L46.8898 128.05C45.4231 124.167 46.6564 119.667 49.7731 117.117C50.6231 116.417 51.6731 115.783 52.7731 115.5C51.6398 117.767 52.0064 120.733 53.8231 122.5C54.5898 123.333 55.5231 123.817 56.3064 124.55L57.2398 125.567ZM53.4398 133.333L53.4231 133.283C54.1731 132.633 54.5898 131.517 54.5564 130.517L54.5064 130C54.1731 128.333 52.7231 127.767 51.7898 126.55L51.0731 125.25C50.7064 126.083 50.6731 126.867 50.8231 127.767C50.9898 128.717 51.3564 129.533 51.1731 130.517C50.9064 131.6 50.0564 132.683 48.5731 133.033C49.4064 133.85 50.7564 134.5 52.1064 134.033C52.5398 133.917 53.0898 133.6 53.4398 133.333ZM25.3398 126.667H38.7731L38.6731 128.333C38.6731 130.683 39.2731 132.883 40.3398 134.8V135H25.3398V126.667ZM23.6731 116.667H33.6731V125H23.6731V116.667ZM35.3398 116.667H45.3398V116.783C42.2898 118.55 39.9898 121.5 39.0898 125H35.3398V116.667ZM25.3398 106.667H38.6731V115H25.3398V106.667ZM40.3398 106.667H55.3398V115H40.3398V106.667Z" fill="#F3F3F3"/>
</g>
<rect width="72" height="72" transform="translate(164.34 164)" fill="#0B80D3"/>
<g opacity="0.3">
<path d="M217.24 205.567L217.206 205.583C217.59 206.05 217.923 206.567 218.173 207.117L218.323 207.433C219.506 210.25 218.673 213.5 216.49 215.533C214.506 217.35 211.74 217.833 209.173 217.5C206.74 217.2 204.506 215.667 203.223 213.55C202.84 212.9 202.506 212.167 202.34 211.417C202.123 210.833 202.056 210.2 202.006 209.583C201.856 206.917 202.923 204.083 204.94 202.417C204.023 204.433 204.24 206.95 205.59 208.7L205.773 208.917C206.006 209.117 206.29 209.167 206.556 209.067C206.806 208.967 207.006 208.717 207.006 208.45L206.89 208.05C205.423 204.167 206.656 199.667 209.773 197.117C210.623 196.417 211.673 195.783 212.773 195.5C211.64 197.767 212.006 200.733 213.823 202.5C214.59 203.333 215.523 203.817 216.306 204.55L217.24 205.567ZM213.44 213.333L213.423 213.283C214.173 212.633 214.59 211.517 214.556 210.517L214.506 210C214.173 208.333 212.723 207.767 211.79 206.55L211.073 205.25C210.706 206.083 210.673 206.867 210.823 207.767C210.99 208.717 211.356 209.533 211.173 210.517C210.906 211.6 210.056 212.683 208.573 213.033C209.406 213.85 210.756 214.5 212.106 214.033C212.54 213.917 213.09 213.6 213.44 213.333ZM185.34 206.667H198.773L198.673 208.333C198.673 210.683 199.273 212.883 200.34 214.8V215H185.34V206.667ZM183.673 196.667H193.673V205H183.673V196.667ZM195.34 196.667H205.34V196.783C202.29 198.55 199.99 201.5 199.09 205H195.34V196.667ZM185.34 186.667H198.673V195H185.34V186.667ZM200.34 186.667H215.34V195H200.34V186.667Z" fill="#F3F3F3"/>
</g>
<rect width="72" height="72" transform="translate(84.3397 164)" fill="#0B80D3"/>
<g opacity="0.3">
<path d="M130.023 187.45C129.89 187.45 129.756 187.417 129.64 187.35C126.44 185.7 123.673 185 120.34 185C117.056 185 113.923 185.783 111.073 187.35C110.673 187.567 110.173 187.417 109.94 187.017C109.723 186.617 109.873 186.1 110.273 185.883C113.373 184.167 116.773 183.333 120.34 183.333C123.906 183.333 127.006 184.117 130.406 185.833C130.823 186.083 130.973 186.583 130.756 186.983C130.606 187.283 130.34 187.45 130.023 187.45ZM106.173 196.2C106.006 196.2 105.84 196.15 105.69 196.05C105.34 195.783 105.223 195.267 105.49 194.883C107.14 192.55 109.24 190.717 111.74 189.433C117.006 186.733 123.673 186.717 128.923 189.417C131.423 190.7 133.523 192.5 135.173 194.833C135.44 195.2 135.34 195.733 134.973 196C134.59 196.267 134.073 196.183 133.806 195.833C132.306 193.7 130.406 192.05 128.156 190.9C123.373 188.45 117.256 188.45 112.49 190.917C110.223 192.083 108.323 193.75 106.823 195.833C106.69 196.083 106.44 196.2 106.173 196.2ZM116.59 216.317C116.373 216.317 116.173 216.233 116.006 216.067C114.556 214.617 113.773 213.683 112.656 211.667C111.506 209.617 110.906 207.117 110.906 204.433C110.906 199.483 115.14 195.45 120.34 195.45C125.54 195.45 129.773 199.483 129.773 204.433C129.773 204.655 129.685 204.866 129.529 205.023C129.373 205.179 129.161 205.267 128.94 205.267C128.719 205.267 128.507 205.179 128.35 205.023C128.194 204.866 128.106 204.655 128.106 204.433C128.106 200.4 124.623 197.117 120.34 197.117C116.056 197.117 112.573 200.4 112.573 204.433C112.573 206.833 113.106 209.05 114.123 210.833C115.19 212.767 115.923 213.583 117.206 214.883C117.523 215.217 117.523 215.733 117.206 216.067C117.006 216.233 116.806 216.317 116.59 216.317ZM128.54 213.233C126.556 213.233 124.806 212.733 123.373 211.75C120.89 210.067 119.406 207.333 119.406 204.433C119.406 204.212 119.494 204.001 119.65 203.844C119.807 203.688 120.019 203.6 120.24 203.6C120.461 203.6 120.673 203.688 120.829 203.844C120.985 204.001 121.073 204.212 121.073 204.433C121.073 206.783 122.273 209 124.306 210.367C125.49 211.167 126.873 211.55 128.54 211.55C128.94 211.55 129.606 211.5 130.273 211.383C130.723 211.3 131.173 211.6 131.24 212.067C131.323 212.5 131.023 212.95 130.556 213.033C129.606 213.217 128.773 213.233 128.54 213.233ZM125.19 216.667C125.123 216.667 125.04 216.667 124.973 216.667C122.323 215.9 120.59 214.917 118.773 213.133C116.44 210.833 115.156 207.733 115.156 204.433C115.156 201.733 117.456 199.533 120.29 199.533C123.123 199.533 125.423 201.733 125.423 204.433C125.423 206.217 127.006 207.667 128.89 207.667C130.806 207.667 132.356 206.217 132.356 204.433C132.356 198.15 126.94 193.05 120.273 193.05C115.54 193.05 111.173 195.683 109.256 199.767C108.606 201.117 108.273 202.7 108.273 204.433C108.273 205.733 108.39 207.783 109.39 210.45C109.556 210.883 109.34 211.367 108.906 211.517C108.473 211.667 107.99 211.45 107.84 211.033C107.006 208.85 106.623 206.667 106.623 204.433C106.623 202.433 107.006 200.617 107.756 199.033C109.973 194.383 114.89 191.367 120.273 191.367C127.84 191.367 134.023 197.217 134.023 204.417C134.023 207.117 131.723 209.317 128.89 209.317C126.056 209.317 123.756 207.117 123.756 204.417C123.756 202.633 122.206 201.183 120.29 201.183C118.373 201.183 116.823 202.633 116.823 204.417C116.823 207.267 117.923 209.933 119.94 211.933C121.523 213.5 123.04 214.367 125.39 215C125.84 215.133 126.09 215.6 125.973 216.033C125.89 216.417 125.54 216.667 125.19 216.667Z" fill="#F3F3F3"/>
</g>
<rect width="72" height="72" transform="translate(4.33972 164)" fill="#0C92EB"/>
<path d="M40.3397 181.667L25.3397 188.333V198.333C25.3397 207.583 31.7397 216.233 40.3397 218.333C48.9397 216.233 55.3397 207.583 55.3397 198.333V188.333L40.3397 181.667ZM40.3397 191.667C42.6731 191.667 45.0064 193.5 45.0064 195.833V198.333C46.0064 198.333 47.0064 199.333 47.0064 200.5V206.333C47.0064 207.333 46.0064 208.333 44.8397 208.333H35.6731C34.6731 208.333 33.6731 207.333 33.6731 206.167V200.333C33.6731 199.333 34.6731 198.333 35.6731 198.333V195.833C35.6731 193.5 38.0064 191.667 40.3397 191.667ZM40.3397 193.667C39.0064 193.667 37.8397 194.5 37.8397 195.833V198.333H42.8397V195.833C42.8397 194.5 41.6731 193.667 40.3397 193.667Z" fill="#F3F3F3"/>
<rect width="72" height="72" transform="translate(164.34 84)" fill="#0B65AE"/>
<g opacity="0.3">
<path d="M207.267 123.148C207.4 122.048 207.5 120.948 207.5 119.815C207.5 118.681 207.4 117.581 207.267 116.481H212.9C213.167 117.548 213.333 118.665 213.333 119.815C213.333 120.965 213.167 122.081 212.9 123.148M204.317 132.415C205.317 130.565 206.083 128.565 206.617 126.481H211.533C209.933 129.231 207.383 131.365 204.317 132.415ZM203.9 123.148H196.1C195.933 122.048 195.833 120.948 195.833 119.815C195.833 118.681 195.933 117.565 196.1 116.481H203.9C204.05 117.565 204.167 118.681 204.167 119.815C204.167 120.948 204.05 122.048 203.9 123.148ZM200 133.081C198.617 131.081 197.5 128.865 196.817 126.481H203.183C202.5 128.865 201.383 131.081 200 133.081ZM193.333 113.148H188.467C190.05 110.381 192.617 108.248 195.667 107.215C194.667 109.065 193.917 111.065 193.333 113.148ZM188.467 126.481H193.333C193.917 128.565 194.667 130.565 195.667 132.415C192.617 131.365 190.05 129.231 188.467 126.481ZM187.1 123.148C186.833 122.081 186.667 120.965 186.667 119.815C186.667 118.665 186.833 117.548 187.1 116.481H192.733C192.6 117.581 192.5 118.681 192.5 119.815C192.5 120.948 192.6 122.048 192.733 123.148M200 106.531C201.383 108.531 202.5 110.765 203.183 113.148H196.817C197.5 110.765 198.617 108.531 200 106.531ZM211.533 113.148H206.617C206.083 111.065 205.317 109.065 204.317 107.215C207.383 108.265 209.933 110.381 211.533 113.148ZM200 103.148C190.783 103.148 183.333 110.648 183.333 119.815C183.333 124.235 185.089 128.474 188.215 131.6C189.763 133.147 191.6 134.375 193.622 135.213C195.644 136.05 197.811 136.481 200 136.481C204.42 136.481 208.66 134.725 211.785 131.6C214.911 128.474 216.667 124.235 216.667 119.815C216.667 117.626 216.236 115.459 215.398 113.437C214.56 111.414 213.333 109.577 211.785 108.03C210.238 106.482 208.4 105.254 206.378 104.417C204.356 103.579 202.189 103.148 200 103.148Z" fill="#F3F3F3"/>
</g>
<defs>
<clipPath id="clip0_552_6876">
<rect width="72" height="72" fill="white" transform="translate(4.33972 4)"/>
</clipPath>
</defs>
</svg>
