<svg width="240" height="240" viewBox="0 0 240 240" fill="none" xmlns="http://www.w3.org/2000/svg">
<g opacity="0.9">
<rect x="4" y="4" width="72" height="72" fill="#0C92EB"/>
<rect x="84" y="4" width="72" height="72" fill="#0C92EB"/>
<rect x="164" y="4" width="72" height="72" fill="#0C92EB"/>
<rect x="4" y="84" width="72" height="72" fill="#0C92EB"/>
<rect x="84" y="84" width="72" height="72" fill="#0C92EB"/>
<rect x="164" y="84" width="72" height="72" fill="#0C92EB"/>
<rect x="4" y="164" width="72" height="72" fill="#0C92EB"/>
<rect x="84" y="164" width="72" height="72" fill="#0C92EB"/>
<rect x="164" y="164" width="72" height="72" fill="#0C92EB"/>
</g>
<path d="M40 180C35.7565 180 31.6869 181.686 28.6863 184.686C25.6857 187.687 24 191.757 24 196C24 204.06 30 210.84 38 211.86V214H36C35.4696 214 34.9609 214.211 34.5858 214.586C34.2107 214.961 34 215.47 34 216H20V220H34C34 220.53 34.2107 221.039 34.5858 221.414C34.9609 221.789 35.4696 222 36 222H44C44.5304 222 45.0391 221.789 45.4142 221.414C45.7893 221.039 46 220.53 46 220H60V216H46C46 215.47 45.7893 214.961 45.4142 214.586C45.0391 214.211 44.5304 214 44 214H42V211.86C50 210.86 56 204.06 56 196C56 191.757 54.3143 187.687 51.3137 184.686C48.3131 181.686 44.2435 180 40 180ZM40 184C40 184 41.48 186.56 42.52 190H37.48C38.52 186.56 40 184 40 184ZM35.54 184.86C35 185.86 34.18 187.68 33.48 190H29.62C31 187.68 33 185.86 35.54 184.86ZM44.46 184.88C47 185.88 49 187.68 50.38 190H46.52C45.82 187.68 45 185.86 44.46 184.88ZM28.18 194H32.64C32.56 194.66 32.5 195.32 32.5 196C32.5 196.68 32.56 197.34 32.64 198H28.18C28.06 197.34 28 196.68 28 196C28 195.32 28.06 194.66 28.18 194ZM36.64 194H43.36C43.44 194.66 43.5 195.32 43.5 196C43.5 196.68 43.44 197.34 43.36 198H36.64C36.56 197.34 36.5 196.68 36.5 196C36.5 195.32 36.56 194.66 36.64 194ZM47.36 194H51.82C51.94 194.66 52 195.32 52 196C52 196.68 51.94 197.34 51.82 198H47.36C47.44 197.34 47.5 196.68 47.5 196C47.5 195.32 47.44 194.66 47.36 194ZM29.62 202H33.48C34.18 204.32 35 206.14 35.54 207.12C33 206.12 31 204.32 29.62 202ZM37.48 202H42.52C41.48 205.44 40 208 40 208C40 208 38.52 205.44 37.48 202ZM46.52 202H50.38C49 204.32 47 206.14 44.46 207.14C45 206.14 45.82 204.32 46.52 202Z" fill="#F3F3F3"/>
<path d="M220.28 126.68L220.24 126.7C220.7 127.26 221.1 127.88 221.4 128.54L221.58 128.92C223 132.3 222 136.2 219.38 138.64C217 140.82 213.68 141.4 210.6 141C207.68 140.64 205 138.8 203.46 136.26C203 135.48 202.6 134.6 202.4 133.7C202.14 133 202.06 132.24 202 131.5C201.82 128.3 203.1 124.9 205.52 122.9C204.42 125.32 204.68 128.34 206.3 130.44L206.52 130.7C206.8 130.94 207.14 131 207.46 130.88C207.76 130.76 208 130.46 208 130.14L207.86 129.66C206.1 125 207.58 119.6 211.32 116.54C212.34 115.7 213.6 114.94 214.92 114.6C213.56 117.32 214 120.88 216.18 123C217.1 124 218.22 124.58 219.16 125.46L220.28 126.68ZM215.72 136L215.7 135.94C216.6 135.16 217.1 133.82 217.06 132.62L217 132C216.6 130 214.86 129.32 213.74 127.86L212.88 126.3C212.44 127.3 212.4 128.24 212.58 129.32C212.78 130.46 213.22 131.44 213 132.62C212.68 133.92 211.66 135.22 209.88 135.64C210.88 136.62 212.5 137.4 214.12 136.84C214.64 136.7 215.3 136.32 215.72 136ZM182 128H198.12L198 130C198 132.82 198.72 135.46 200 137.76V138H182V128ZM180 116H192V126H180V116ZM194 116H206V116.14C202.34 118.26 199.58 121.8 198.5 126H194V116ZM182 104H198V114H182V104ZM200 104H218V114H200V104Z" fill="#F3F3F3"/>
<circle cx="88.5" cy="106.5" r="1" fill="#F3F3F3"/>
<circle cx="88.5" cy="115.5" r="2" fill="#F3F3F3"/>
<circle cx="97.5" cy="97.5" r="2.5" fill="#F3F3F3"/>
<circle cx="97.5" cy="115.5" r="1" fill="#F3F3F3"/>
<circle cx="97.5" cy="124.5" r="3.5" fill="#F3F3F3"/>
<circle cx="97.5" cy="142.5" r="3" fill="#F3F3F3"/>
<circle cx="97.5" cy="151.5" r="2" fill="#F3F3F3"/>
<circle cx="106.5" cy="88.5" r="2" fill="#F3F3F3"/>
<circle cx="106.5" cy="97.5" r="2" fill="#F3F3F3"/>
<circle cx="106.5" cy="151.5" r="1" fill="#F3F3F3"/>
<circle cx="115.5" cy="88.5" r="1" fill="#F3F3F3"/>
<circle cx="115.5" cy="106.5" r="2" fill="#F3F3F3"/>
<circle cx="115.5" cy="124.5" r="3" fill="#F3F3F3"/>
<circle cx="115.5" cy="133.5" r="1" fill="#F3F3F3"/>
<circle cx="115.5" cy="142.5" r="3" fill="#F3F3F3"/>
<circle cx="115.5" cy="151.5" r="2" fill="#F3F3F3"/>
<circle cx="124.5" cy="97.5" r="2" fill="#F3F3F3"/>
<circle cx="124.5" cy="106.5" r="3.5" fill="#F3F3F3"/>
<circle cx="124.5" cy="115.5" r="1.5" fill="#F3F3F3"/>
<circle cx="124.5" cy="133.5" r="2" fill="#F3F3F3"/>
<circle cx="133.5" cy="151.5" r="1.5" fill="#F3F3F3"/>
<circle cx="142.5" cy="88.5" r="2" fill="#F3F3F3"/>
<circle cx="142.5" cy="106.5" r="1" fill="#F3F3F3"/>
<circle cx="142.5" cy="115.5" r="2" fill="#F3F3F3"/>
<circle cx="142.5" cy="124.5" r="3" fill="#F3F3F3"/>
<circle cx="151.5" cy="88.5" r="1" fill="#F3F3F3"/>
<circle cx="151.5" cy="106.5" r="2" fill="#F3F3F3"/>
<circle cx="151.5" cy="142.5" r="2" fill="#F3F3F3"/>
<circle cx="151.5" cy="151.5" r="1" fill="#F3F3F3"/>
<circle cx="8.5" cy="106.5" r="1" fill="#F3F3F3"/>
<circle cx="8.5" cy="115.5" r="2" fill="#F3F3F3"/>
<circle cx="17.5" cy="97.5" r="2.5" fill="#F3F3F3"/>
<circle cx="17.5" cy="115.5" r="1" fill="#F3F3F3"/>
<circle cx="17.5" cy="124.5" r="3.5" fill="#F3F3F3"/>
<circle cx="17.5" cy="142.5" r="3" fill="#F3F3F3"/>
<circle cx="17.5" cy="151.5" r="2" fill="#F3F3F3"/>
<circle cx="26.5" cy="88.5" r="2" fill="#F3F3F3"/>
<circle cx="26.5" cy="97.5" r="2" fill="#F3F3F3"/>
<circle cx="26.5" cy="151.5" r="1" fill="#F3F3F3"/>
<circle cx="35.5" cy="88.5" r="1" fill="#F3F3F3"/>
<circle cx="35.5" cy="106.5" r="2" fill="#F3F3F3"/>
<circle cx="35.5" cy="124.5" r="3" fill="#F3F3F3"/>
<circle cx="35.5" cy="133.5" r="1" fill="#F3F3F3"/>
<circle cx="35.5" cy="142.5" r="3" fill="#F3F3F3"/>
<circle cx="35.5" cy="151.5" r="2" fill="#F3F3F3"/>
<circle cx="44.5" cy="97.5" r="2" fill="#F3F3F3"/>
<circle cx="44.5" cy="106.5" r="3.5" fill="#F3F3F3"/>
<circle cx="44.5" cy="115.5" r="1.5" fill="#F3F3F3"/>
<circle cx="44.5" cy="133.5" r="2" fill="#F3F3F3"/>
<circle cx="53.5" cy="151.5" r="1.5" fill="#F3F3F3"/>
<circle cx="62.5" cy="88.5" r="2" fill="#F3F3F3"/>
<circle cx="62.5" cy="106.5" r="1" fill="#F3F3F3"/>
<circle cx="62.5" cy="115.5" r="2" fill="#F3F3F3"/>
<circle cx="62.5" cy="124.5" r="3" fill="#F3F3F3"/>
<circle cx="71.5" cy="88.5" r="1" fill="#F3F3F3"/>
<circle cx="71.5" cy="106.5" r="2" fill="#F3F3F3"/>
<circle cx="71.5" cy="142.5" r="2" fill="#F3F3F3"/>
<circle cx="71.5" cy="151.5" r="1" fill="#F3F3F3"/>
<circle cx="88.5" cy="26.5" r="1" fill="#F3F3F3"/>
<circle cx="88.5" cy="35.5" r="2" fill="#F3F3F3"/>
<circle cx="97.5" cy="17.5" r="2.5" fill="#F3F3F3"/>
<circle cx="97.5" cy="35.5" r="1" fill="#F3F3F3"/>
<circle cx="97.5" cy="44.5" r="3.5" fill="#F3F3F3"/>
<circle cx="97.5" cy="62.5" r="3" fill="#F3F3F3"/>
<circle cx="97.5" cy="71.5" r="2" fill="#F3F3F3"/>
<circle cx="106.5" cy="8.5" r="2" fill="#F3F3F3"/>
<circle cx="106.5" cy="17.5" r="2" fill="#F3F3F3"/>
<circle cx="106.5" cy="71.5" r="1" fill="#F3F3F3"/>
<circle cx="115.5" cy="8.5" r="1" fill="#F3F3F3"/>
<circle cx="115.5" cy="26.5" r="2" fill="#F3F3F3"/>
<circle cx="115.5" cy="44.5" r="3" fill="#F3F3F3"/>
<circle cx="115.5" cy="53.5" r="1" fill="#F3F3F3"/>
<circle cx="115.5" cy="62.5" r="3" fill="#F3F3F3"/>
<circle cx="115.5" cy="71.5" r="2" fill="#F3F3F3"/>
<circle cx="124.5" cy="17.5" r="2" fill="#F3F3F3"/>
<circle cx="124.5" cy="26.5" r="3.5" fill="#F3F3F3"/>
<circle cx="124.5" cy="35.5" r="1.5" fill="#F3F3F3"/>
<circle cx="124.5" cy="53.5" r="2" fill="#F3F3F3"/>
<circle cx="133.5" cy="71.5" r="1.5" fill="#F3F3F3"/>
<circle cx="142.5" cy="8.5" r="2" fill="#F3F3F3"/>
<circle cx="142.5" cy="26.5" r="1" fill="#F3F3F3"/>
<circle cx="142.5" cy="35.5" r="2" fill="#F3F3F3"/>
<circle cx="142.5" cy="44.5" r="3" fill="#F3F3F3"/>
<circle cx="151.5" cy="8.5" r="1" fill="#F3F3F3"/>
<circle cx="151.5" cy="26.5" r="2" fill="#F3F3F3"/>
<circle cx="151.5" cy="62.5" r="2" fill="#F3F3F3"/>
<circle cx="151.5" cy="71.5" r="1" fill="#F3F3F3"/>
<path d="M40 40H54C52.94 48.22 47.44 55.56 40 57.84V40H26V28.6L40 22.38M40 18L22 26V38C22 49.1 29.68 59.46 40 62C50.32 59.46 58 49.1 58 38V26L40 18Z" fill="#F3F3F3"/>
<circle cx="168.5" cy="26.5" r="1" fill="#F3F3F3"/>
<circle cx="168.5" cy="35.5" r="2" fill="#F3F3F3"/>
<circle cx="177.5" cy="17.5" r="2.5" fill="#F3F3F3"/>
<circle cx="177.5" cy="35.5" r="1" fill="#F3F3F3"/>
<circle cx="177.5" cy="44.5" r="3.5" fill="#F3F3F3"/>
<circle cx="177.5" cy="62.5" r="3" fill="#F3F3F3"/>
<circle cx="177.5" cy="71.5" r="2" fill="#F3F3F3"/>
<circle cx="186.5" cy="8.5" r="2" fill="#F3F3F3"/>
<circle cx="186.5" cy="17.5" r="2" fill="#F3F3F3"/>
<circle cx="186.5" cy="71.5" r="1" fill="#F3F3F3"/>
<circle cx="195.5" cy="8.5" r="1" fill="#F3F3F3"/>
<circle cx="195.5" cy="26.5" r="2" fill="#F3F3F3"/>
<circle cx="195.5" cy="44.5" r="3" fill="#F3F3F3"/>
<circle cx="195.5" cy="53.5" r="1" fill="#F3F3F3"/>
<circle cx="195.5" cy="62.5" r="3" fill="#F3F3F3"/>
<circle cx="195.5" cy="71.5" r="2" fill="#F3F3F3"/>
<circle cx="204.5" cy="17.5" r="2" fill="#F3F3F3"/>
<circle cx="204.5" cy="26.5" r="3.5" fill="#F3F3F3"/>
<circle cx="204.5" cy="35.5" r="1.5" fill="#F3F3F3"/>
<circle cx="204.5" cy="53.5" r="2" fill="#F3F3F3"/>
<circle cx="213.5" cy="71.5" r="1.5" fill="#F3F3F3"/>
<circle cx="222.5" cy="8.5" r="2" fill="#F3F3F3"/>
<circle cx="222.5" cy="26.5" r="1" fill="#F3F3F3"/>
<circle cx="222.5" cy="35.5" r="2" fill="#F3F3F3"/>
<circle cx="222.5" cy="44.5" r="3" fill="#F3F3F3"/>
<circle cx="231.5" cy="8.5" r="1" fill="#F3F3F3"/>
<circle cx="231.5" cy="26.5" r="2" fill="#F3F3F3"/>
<circle cx="231.5" cy="62.5" r="2" fill="#F3F3F3"/>
<circle cx="231.5" cy="71.5" r="1" fill="#F3F3F3"/>
<circle cx="168.5" cy="186.5" r="1" fill="#F3F3F3"/>
<circle cx="168.5" cy="195.5" r="2" fill="#F3F3F3"/>
<circle cx="177.5" cy="177.5" r="2.5" fill="#F3F3F3"/>
<circle cx="177.5" cy="195.5" r="1" fill="#F3F3F3"/>
<circle cx="177.5" cy="204.5" r="3.5" fill="#F3F3F3"/>
<circle cx="177.5" cy="222.5" r="3" fill="#F3F3F3"/>
<circle cx="177.5" cy="231.5" r="2" fill="#F3F3F3"/>
<circle cx="186.5" cy="168.5" r="2" fill="#F3F3F3"/>
<circle cx="186.5" cy="177.5" r="2" fill="#F3F3F3"/>
<circle cx="186.5" cy="231.5" r="1" fill="#F3F3F3"/>
<circle cx="195.5" cy="168.5" r="1" fill="#F3F3F3"/>
<circle cx="195.5" cy="186.5" r="2" fill="#F3F3F3"/>
<circle cx="195.5" cy="204.5" r="3" fill="#F3F3F3"/>
<circle cx="195.5" cy="213.5" r="1" fill="#F3F3F3"/>
<circle cx="195.5" cy="222.5" r="3" fill="#F3F3F3"/>
<circle cx="195.5" cy="231.5" r="2" fill="#F3F3F3"/>
<circle cx="204.5" cy="177.5" r="2" fill="#F3F3F3"/>
<circle cx="204.5" cy="186.5" r="3.5" fill="#F3F3F3"/>
<circle cx="204.5" cy="195.5" r="1.5" fill="#F3F3F3"/>
<circle cx="204.5" cy="213.5" r="2" fill="#F3F3F3"/>
<circle cx="213.5" cy="231.5" r="1.5" fill="#F3F3F3"/>
<circle cx="222.5" cy="168.5" r="2" fill="#F3F3F3"/>
<circle cx="222.5" cy="186.5" r="1" fill="#F3F3F3"/>
<circle cx="222.5" cy="195.5" r="2" fill="#F3F3F3"/>
<circle cx="222.5" cy="204.5" r="3" fill="#F3F3F3"/>
<circle cx="231.5" cy="168.5" r="1" fill="#F3F3F3"/>
<circle cx="231.5" cy="186.5" r="2" fill="#F3F3F3"/>
<circle cx="231.5" cy="222.5" r="2" fill="#F3F3F3"/>
<circle cx="231.5" cy="231.5" r="1" fill="#F3F3F3"/>
<circle cx="88.5" cy="186.5" r="1" fill="#F3F3F3"/>
<circle cx="88.5" cy="195.5" r="2" fill="#F3F3F3"/>
<circle cx="97.5" cy="177.5" r="2.5" fill="#F3F3F3"/>
<circle cx="97.5" cy="195.5" r="1" fill="#F3F3F3"/>
<circle cx="97.5" cy="204.5" r="3.5" fill="#F3F3F3"/>
<circle cx="97.5" cy="222.5" r="3" fill="#F3F3F3"/>
<circle cx="97.5" cy="231.5" r="2" fill="#F3F3F3"/>
<circle cx="106.5" cy="168.5" r="2" fill="#F3F3F3"/>
<circle cx="106.5" cy="177.5" r="2" fill="#F3F3F3"/>
<circle cx="106.5" cy="231.5" r="1" fill="#F3F3F3"/>
<circle cx="115.5" cy="168.5" r="1" fill="#F3F3F3"/>
<circle cx="115.5" cy="186.5" r="2" fill="#F3F3F3"/>
<circle cx="115.5" cy="204.5" r="3" fill="#F3F3F3"/>
<circle cx="115.5" cy="213.5" r="1" fill="#F3F3F3"/>
<circle cx="115.5" cy="222.5" r="3" fill="#F3F3F3"/>
<circle cx="115.5" cy="231.5" r="2" fill="#F3F3F3"/>
<circle cx="124.5" cy="177.5" r="2" fill="#F3F3F3"/>
<circle cx="124.5" cy="186.5" r="3.5" fill="#F3F3F3"/>
<circle cx="124.5" cy="195.5" r="1.5" fill="#F3F3F3"/>
<circle cx="124.5" cy="213.5" r="2" fill="#F3F3F3"/>
<circle cx="133.5" cy="231.5" r="1.5" fill="#F3F3F3"/>
<circle cx="142.5" cy="168.5" r="2" fill="#F3F3F3"/>
<circle cx="142.5" cy="186.5" r="1" fill="#F3F3F3"/>
<circle cx="142.5" cy="195.5" r="2" fill="#F3F3F3"/>
<circle cx="142.5" cy="204.5" r="3" fill="#F3F3F3"/>
<circle cx="151.5" cy="168.5" r="1" fill="#F3F3F3"/>
<circle cx="151.5" cy="186.5" r="2" fill="#F3F3F3"/>
<circle cx="151.5" cy="222.5" r="2" fill="#F3F3F3"/>
<circle cx="151.5" cy="231.5" r="1" fill="#F3F3F3"/>
</svg>
