<svg width="240" height="240" viewBox="0 0 240 240" fill="none" xmlns="http://www.w3.org/2000/svg">
<g opacity="0.9">
<rect x="4" y="4" width="72" height="72" fill="#0C92EB"/>
<rect x="84" y="4" width="72" height="72" fill="#0C92EB"/>
<rect x="164" y="4" width="72" height="72" fill="#0C92EB"/>
<rect x="4" y="84" width="72" height="72" fill="#0C92EB"/>
<rect x="84" y="84" width="72" height="72" fill="#0C92EB"/>
<rect x="164" y="84" width="72" height="72" fill="#0C92EB"/>
<rect x="4" y="164" width="72" height="72" fill="#0C92EB"/>
<rect x="84" y="164" width="72" height="72" fill="#0C92EB"/>
<rect x="164" y="164" width="72" height="72" fill="#0C92EB"/>
</g>
<path d="M48.72 124C48.88 122.68 49 121.36 49 120C49 118.64 48.88 117.32 48.72 116H55.48C55.8 117.28 56 118.62 56 120C56 121.38 55.8 122.72 55.48 124M45.18 135.12C46.38 132.9 47.3 130.5 47.94 128H53.84C51.92 131.3 48.86 133.86 45.18 135.12ZM44.68 124H35.32C35.12 122.68 35 121.36 35 120C35 118.64 35.12 117.3 35.32 116H44.68C44.86 117.3 45 118.64 45 120C45 121.36 44.86 122.68 44.68 124ZM40 135.92C38.34 133.52 37 130.86 36.18 128H43.82C43 130.86 41.66 133.52 40 135.92ZM32 112H26.16C28.06 108.68 31.14 106.12 34.8 104.88C33.6 107.1 32.7 109.5 32 112ZM26.16 128H32C32.7 130.5 33.6 132.9 34.8 135.12C31.14 133.86 28.06 131.3 26.16 128ZM24.52 124C24.2 122.72 24 121.38 24 120C24 118.62 24.2 117.28 24.52 116H31.28C31.12 117.32 31 118.64 31 120C31 121.36 31.12 122.68 31.28 124M40 104.06C41.66 106.46 43 109.14 43.82 112H36.18C37 109.14 38.34 106.46 40 104.06ZM53.84 112H47.94C47.3 109.5 46.38 107.1 45.18 104.88C48.86 106.14 51.92 108.68 53.84 112ZM40 100C28.94 100 20 109 20 120C20 125.304 22.1071 130.391 25.8579 134.142C27.715 135.999 29.9198 137.472 32.3463 138.478C34.7728 139.483 37.3736 140 40 140C45.3043 140 50.3914 137.893 54.1421 134.142C57.8929 130.391 60 125.304 60 120C60 117.374 59.4827 114.773 58.4776 112.346C57.4725 109.92 55.9993 107.715 54.1421 105.858C52.285 104.001 50.0802 102.528 47.6537 101.522C45.2272 100.517 42.6264 100 40 100Z" fill="#F3F3F3"/>
<path d="M120 52.4C120 52.26 120 52.14 120 52H104V32L120 42L136 32V38.88C137.62 39.6 139 40.72 140 42.12V28C140 25.8 138.2 24 136 24H104C101.8 24 100 25.8 100 28V52C100 54.2 101.8 56 104 56H120V52.4ZM136 28L120 38L104 28H136ZM137.6 50V47C137.6 44.2 134.8 42 132 42C129.2 42 126.4 44.2 126.4 47V50C125.2 50 124 51.2 124 52.4V59.4C124 60.8 125.2 62 126.4 62H137.4C138.8 62 140 60.8 140 59.6V52.6C140 51.2 138.8 50 137.6 50ZM135 50H129V47C129 45.4 130.4 44.4 132 44.4C133.6 44.4 135 45.4 135 47V50Z" fill="#F3F3F3"/>
<path d="M214.14 185.86L211.32 188.68C214.2 191.58 216 195.58 216 200C216 204.243 214.314 208.313 211.314 211.314C208.313 214.314 204.243 216 200 216C195.757 216 191.687 214.314 188.686 211.314C185.686 208.313 184 204.243 184 200C184 191.84 190.1 185.12 198 184.14V188.18C192.32 189.14 188 194.06 188 200C188 203.183 189.264 206.235 191.515 208.485C193.765 210.736 196.817 212 200 212C203.183 212 206.235 210.736 208.485 208.485C210.736 206.235 212 203.183 212 200C212 196.68 210.66 193.68 208.48 191.52L205.66 194.34C207.1 195.8 208 197.8 208 200C208 202.122 207.157 204.157 205.657 205.657C204.157 207.157 202.122 208 200 208C197.878 208 195.843 207.157 194.343 205.657C192.843 204.157 192 202.122 192 200C192 196.28 194.56 193.18 198 192.28V196.56C196.8 197.26 196 198.52 196 200C196 201.061 196.421 202.078 197.172 202.828C197.922 203.579 198.939 204 200 204C201.061 204 202.078 203.579 202.828 202.828C203.579 202.078 204 201.061 204 200C204 198.52 203.2 197.24 202 196.56V180H200C197.374 180 194.773 180.517 192.346 181.522C189.92 182.528 187.715 184.001 185.858 185.858C182.107 189.609 180 194.696 180 200C180 205.304 182.107 210.391 185.858 214.142C187.715 215.999 189.92 217.472 192.346 218.478C194.773 219.483 197.374 220 200 220C205.304 220 210.391 217.893 214.142 214.142C217.893 210.391 220 205.304 220 200C220 194.48 217.76 189.48 214.14 185.86Z" fill="#F3F3F3"/>
<circle cx="8.5" cy="26.5" r="1" fill="#F3F3F3"/>
<circle cx="8.5" cy="35.5" r="2" fill="#F3F3F3"/>
<circle cx="17.5" cy="17.5" r="2.5" fill="#F3F3F3"/>
<circle cx="17.5" cy="35.5" r="1" fill="#F3F3F3"/>
<circle cx="17.5" cy="44.5" r="3.5" fill="#F3F3F3"/>
<circle cx="17.5" cy="62.5" r="3" fill="#F3F3F3"/>
<circle cx="17.5" cy="71.5" r="2" fill="#F3F3F3"/>
<circle cx="26.5" cy="8.5" r="2" fill="#F3F3F3"/>
<circle cx="26.5" cy="17.5" r="2" fill="#F3F3F3"/>
<circle cx="26.5" cy="71.5" r="1" fill="#F3F3F3"/>
<circle cx="35.5" cy="8.5" r="1" fill="#F3F3F3"/>
<circle cx="35.5" cy="26.5" r="2" fill="#F3F3F3"/>
<circle cx="35.5" cy="44.5" r="3" fill="#F3F3F3"/>
<circle cx="35.5" cy="53.5" r="1" fill="#F3F3F3"/>
<circle cx="35.5" cy="62.5" r="3" fill="#F3F3F3"/>
<circle cx="35.5" cy="71.5" r="2" fill="#F3F3F3"/>
<circle cx="44.5" cy="17.5" r="2" fill="#F3F3F3"/>
<circle cx="44.5" cy="26.5" r="3.5" fill="#F3F3F3"/>
<circle cx="44.5" cy="35.5" r="1.5" fill="#F3F3F3"/>
<circle cx="44.5" cy="53.5" r="2" fill="#F3F3F3"/>
<circle cx="53.5" cy="71.5" r="1.5" fill="#F3F3F3"/>
<circle cx="62.5" cy="8.5" r="2" fill="#F3F3F3"/>
<circle cx="62.5" cy="26.5" r="1" fill="#F3F3F3"/>
<circle cx="62.5" cy="35.5" r="2" fill="#F3F3F3"/>
<circle cx="62.5" cy="44.5" r="3" fill="#F3F3F3"/>
<circle cx="71.5" cy="8.5" r="1" fill="#F3F3F3"/>
<circle cx="71.5" cy="26.5" r="2" fill="#F3F3F3"/>
<circle cx="71.5" cy="62.5" r="2" fill="#F3F3F3"/>
<circle cx="71.5" cy="71.5" r="1" fill="#F3F3F3"/>
<circle cx="88.5" cy="106.5" r="1" fill="#F3F3F3"/>
<circle cx="88.5" cy="115.5" r="2" fill="#F3F3F3"/>
<circle cx="97.5" cy="97.5" r="2.5" fill="#F3F3F3"/>
<circle cx="97.5" cy="115.5" r="1" fill="#F3F3F3"/>
<circle cx="97.5" cy="124.5" r="3.5" fill="#F3F3F3"/>
<circle cx="97.5" cy="142.5" r="3" fill="#F3F3F3"/>
<circle cx="97.5" cy="151.5" r="2" fill="#F3F3F3"/>
<circle cx="106.5" cy="88.5" r="2" fill="#F3F3F3"/>
<circle cx="106.5" cy="97.5" r="2" fill="#F3F3F3"/>
<circle cx="106.5" cy="151.5" r="1" fill="#F3F3F3"/>
<circle cx="115.5" cy="88.5" r="1" fill="#F3F3F3"/>
<circle cx="115.5" cy="106.5" r="2" fill="#F3F3F3"/>
<circle cx="115.5" cy="124.5" r="3" fill="#F3F3F3"/>
<circle cx="115.5" cy="133.5" r="1" fill="#F3F3F3"/>
<circle cx="115.5" cy="142.5" r="3" fill="#F3F3F3"/>
<circle cx="115.5" cy="151.5" r="2" fill="#F3F3F3"/>
<circle cx="124.5" cy="97.5" r="2" fill="#F3F3F3"/>
<circle cx="124.5" cy="106.5" r="3.5" fill="#F3F3F3"/>
<circle cx="124.5" cy="115.5" r="1.5" fill="#F3F3F3"/>
<circle cx="124.5" cy="133.5" r="2" fill="#F3F3F3"/>
<circle cx="133.5" cy="151.5" r="1.5" fill="#F3F3F3"/>
<circle cx="142.5" cy="88.5" r="2" fill="#F3F3F3"/>
<circle cx="142.5" cy="106.5" r="1" fill="#F3F3F3"/>
<circle cx="142.5" cy="115.5" r="2" fill="#F3F3F3"/>
<circle cx="142.5" cy="124.5" r="3" fill="#F3F3F3"/>
<circle cx="151.5" cy="88.5" r="1" fill="#F3F3F3"/>
<circle cx="151.5" cy="106.5" r="2" fill="#F3F3F3"/>
<circle cx="151.5" cy="142.5" r="2" fill="#F3F3F3"/>
<circle cx="151.5" cy="151.5" r="1" fill="#F3F3F3"/>
<circle cx="88.5" cy="186.5" r="1" fill="#F3F3F3"/>
<circle cx="88.5" cy="195.5" r="2" fill="#F3F3F3"/>
<circle cx="97.5" cy="177.5" r="2.5" fill="#F3F3F3"/>
<circle cx="97.5" cy="195.5" r="1" fill="#F3F3F3"/>
<circle cx="97.5" cy="204.5" r="3.5" fill="#F3F3F3"/>
<circle cx="97.5" cy="222.5" r="3" fill="#F3F3F3"/>
<circle cx="97.5" cy="231.5" r="2" fill="#F3F3F3"/>
<circle cx="106.5" cy="168.5" r="2" fill="#F3F3F3"/>
<circle cx="106.5" cy="177.5" r="2" fill="#F3F3F3"/>
<circle cx="106.5" cy="231.5" r="1" fill="#F3F3F3"/>
<circle cx="115.5" cy="168.5" r="1" fill="#F3F3F3"/>
<circle cx="115.5" cy="186.5" r="2" fill="#F3F3F3"/>
<circle cx="115.5" cy="204.5" r="3" fill="#F3F3F3"/>
<circle cx="115.5" cy="213.5" r="1" fill="#F3F3F3"/>
<circle cx="115.5" cy="222.5" r="3" fill="#F3F3F3"/>
<circle cx="115.5" cy="231.5" r="2" fill="#F3F3F3"/>
<circle cx="124.5" cy="177.5" r="2" fill="#F3F3F3"/>
<circle cx="124.5" cy="186.5" r="3.5" fill="#F3F3F3"/>
<circle cx="124.5" cy="195.5" r="1.5" fill="#F3F3F3"/>
<circle cx="124.5" cy="213.5" r="2" fill="#F3F3F3"/>
<circle cx="133.5" cy="231.5" r="1.5" fill="#F3F3F3"/>
<circle cx="142.5" cy="168.5" r="2" fill="#F3F3F3"/>
<circle cx="142.5" cy="186.5" r="1" fill="#F3F3F3"/>
<circle cx="142.5" cy="195.5" r="2" fill="#F3F3F3"/>
<circle cx="142.5" cy="204.5" r="3" fill="#F3F3F3"/>
<circle cx="151.5" cy="168.5" r="1" fill="#F3F3F3"/>
<circle cx="151.5" cy="186.5" r="2" fill="#F3F3F3"/>
<circle cx="151.5" cy="222.5" r="2" fill="#F3F3F3"/>
<circle cx="151.5" cy="231.5" r="1" fill="#F3F3F3"/>
<circle cx="8.5" cy="186.5" r="1" fill="#F3F3F3"/>
<circle cx="8.5" cy="195.5" r="2" fill="#F3F3F3"/>
<circle cx="17.5" cy="177.5" r="2.5" fill="#F3F3F3"/>
<circle cx="17.5" cy="195.5" r="1" fill="#F3F3F3"/>
<circle cx="17.5" cy="204.5" r="3.5" fill="#F3F3F3"/>
<circle cx="17.5" cy="222.5" r="3" fill="#F3F3F3"/>
<circle cx="17.5" cy="231.5" r="2" fill="#F3F3F3"/>
<circle cx="26.5" cy="168.5" r="2" fill="#F3F3F3"/>
<circle cx="26.5" cy="177.5" r="2" fill="#F3F3F3"/>
<circle cx="26.5" cy="231.5" r="1" fill="#F3F3F3"/>
<circle cx="35.5" cy="168.5" r="1" fill="#F3F3F3"/>
<circle cx="35.5" cy="186.5" r="2" fill="#F3F3F3"/>
<circle cx="35.5" cy="204.5" r="3" fill="#F3F3F3"/>
<circle cx="35.5" cy="213.5" r="1" fill="#F3F3F3"/>
<circle cx="35.5" cy="222.5" r="3" fill="#F3F3F3"/>
<circle cx="35.5" cy="231.5" r="2" fill="#F3F3F3"/>
<circle cx="44.5" cy="177.5" r="2" fill="#F3F3F3"/>
<circle cx="44.5" cy="186.5" r="3.5" fill="#F3F3F3"/>
<circle cx="44.5" cy="195.5" r="1.5" fill="#F3F3F3"/>
<circle cx="44.5" cy="213.5" r="2" fill="#F3F3F3"/>
<circle cx="53.5" cy="231.5" r="1.5" fill="#F3F3F3"/>
<circle cx="62.5" cy="168.5" r="2" fill="#F3F3F3"/>
<circle cx="62.5" cy="186.5" r="1" fill="#F3F3F3"/>
<circle cx="62.5" cy="195.5" r="2" fill="#F3F3F3"/>
<circle cx="62.5" cy="204.5" r="3" fill="#F3F3F3"/>
<circle cx="71.5" cy="168.5" r="1" fill="#F3F3F3"/>
<circle cx="71.5" cy="186.5" r="2" fill="#F3F3F3"/>
<circle cx="71.5" cy="222.5" r="2" fill="#F3F3F3"/>
<circle cx="71.5" cy="231.5" r="1" fill="#F3F3F3"/>
<circle cx="168.5" cy="106.5" r="1" fill="#F3F3F3"/>
<circle cx="168.5" cy="115.5" r="2" fill="#F3F3F3"/>
<circle cx="177.5" cy="97.5" r="2.5" fill="#F3F3F3"/>
<circle cx="177.5" cy="115.5" r="1" fill="#F3F3F3"/>
<circle cx="177.5" cy="124.5" r="3.5" fill="#F3F3F3"/>
<circle cx="177.5" cy="142.5" r="3" fill="#F3F3F3"/>
<circle cx="177.5" cy="151.5" r="2" fill="#F3F3F3"/>
<circle cx="186.5" cy="88.5" r="2" fill="#F3F3F3"/>
<circle cx="186.5" cy="97.5" r="2" fill="#F3F3F3"/>
<circle cx="186.5" cy="151.5" r="1" fill="#F3F3F3"/>
<circle cx="195.5" cy="88.5" r="1" fill="#F3F3F3"/>
<circle cx="195.5" cy="106.5" r="2" fill="#F3F3F3"/>
<circle cx="195.5" cy="124.5" r="3" fill="#F3F3F3"/>
<circle cx="195.5" cy="133.5" r="1" fill="#F3F3F3"/>
<circle cx="195.5" cy="142.5" r="3" fill="#F3F3F3"/>
<circle cx="195.5" cy="151.5" r="2" fill="#F3F3F3"/>
<circle cx="204.5" cy="97.5" r="2" fill="#F3F3F3"/>
<circle cx="204.5" cy="106.5" r="3.5" fill="#F3F3F3"/>
<circle cx="204.5" cy="115.5" r="1.5" fill="#F3F3F3"/>
<circle cx="204.5" cy="133.5" r="2" fill="#F3F3F3"/>
<circle cx="213.5" cy="151.5" r="1.5" fill="#F3F3F3"/>
<circle cx="222.5" cy="88.5" r="2" fill="#F3F3F3"/>
<circle cx="222.5" cy="106.5" r="1" fill="#F3F3F3"/>
<circle cx="222.5" cy="115.5" r="2" fill="#F3F3F3"/>
<circle cx="222.5" cy="124.5" r="3" fill="#F3F3F3"/>
<circle cx="231.5" cy="88.5" r="1" fill="#F3F3F3"/>
<circle cx="231.5" cy="106.5" r="2" fill="#F3F3F3"/>
<circle cx="231.5" cy="142.5" r="2" fill="#F3F3F3"/>
<circle cx="231.5" cy="151.5" r="1" fill="#F3F3F3"/>
<circle cx="168.5" cy="26.5" r="1" fill="#F3F3F3"/>
<circle cx="168.5" cy="35.5" r="2" fill="#F3F3F3"/>
<circle cx="177.5" cy="17.5" r="2.5" fill="#F3F3F3"/>
<circle cx="177.5" cy="35.5" r="1" fill="#F3F3F3"/>
<circle cx="177.5" cy="44.5" r="3.5" fill="#F3F3F3"/>
<circle cx="177.5" cy="62.5" r="3" fill="#F3F3F3"/>
<circle cx="177.5" cy="71.5" r="2" fill="#F3F3F3"/>
<circle cx="186.5" cy="8.5" r="2" fill="#F3F3F3"/>
<circle cx="186.5" cy="17.5" r="2" fill="#F3F3F3"/>
<circle cx="186.5" cy="71.5" r="1" fill="#F3F3F3"/>
<circle cx="195.5" cy="8.5" r="1" fill="#F3F3F3"/>
<circle cx="195.5" cy="26.5" r="2" fill="#F3F3F3"/>
<circle cx="195.5" cy="44.5" r="3" fill="#F3F3F3"/>
<circle cx="195.5" cy="53.5" r="1" fill="#F3F3F3"/>
<circle cx="195.5" cy="62.5" r="3" fill="#F3F3F3"/>
<circle cx="195.5" cy="71.5" r="2" fill="#F3F3F3"/>
<circle cx="204.5" cy="17.5" r="2" fill="#F3F3F3"/>
<circle cx="204.5" cy="26.5" r="3.5" fill="#F3F3F3"/>
<circle cx="204.5" cy="35.5" r="1.5" fill="#F3F3F3"/>
<circle cx="204.5" cy="53.5" r="2" fill="#F3F3F3"/>
<circle cx="213.5" cy="71.5" r="1.5" fill="#F3F3F3"/>
<circle cx="222.5" cy="8.5" r="2" fill="#F3F3F3"/>
<circle cx="222.5" cy="26.5" r="1" fill="#F3F3F3"/>
<circle cx="222.5" cy="35.5" r="2" fill="#F3F3F3"/>
<circle cx="222.5" cy="44.5" r="3" fill="#F3F3F3"/>
<circle cx="231.5" cy="8.5" r="1" fill="#F3F3F3"/>
<circle cx="231.5" cy="26.5" r="2" fill="#F3F3F3"/>
<circle cx="231.5" cy="62.5" r="2" fill="#F3F3F3"/>
<circle cx="231.5" cy="71.5" r="1" fill="#F3F3F3"/>
</svg>
