<svg width="240" height="240" viewBox="0 0 240 240" fill="none" xmlns="http://www.w3.org/2000/svg">
<g opacity="0.9">
<rect x="4" y="4" width="72" height="72" fill="#0C92EB"/>
<rect x="84" y="4" width="72" height="72" fill="#0C92EB"/>
<rect x="164" y="4" width="72" height="72" fill="#0C92EB"/>
<rect x="4" y="84" width="72" height="72" fill="#0C92EB"/>
<rect x="84" y="84" width="72" height="72" fill="#0C92EB"/>
<rect x="164" y="84" width="72" height="72" fill="#0C92EB"/>
<rect x="4" y="164" width="72" height="72" fill="#0C92EB"/>
<rect x="84" y="164" width="72" height="72" fill="#0C92EB"/>
<rect x="164" y="164" width="72" height="72" fill="#0C92EB"/>
</g>
<circle cx="88.5" cy="106.5" r="1" fill="#F3F3F3"/>
<circle cx="88.5" cy="115.5" r="2" fill="#F3F3F3"/>
<circle cx="97.5" cy="97.5" r="2.5" fill="#F3F3F3"/>
<circle cx="97.5" cy="115.5" r="1" fill="#F3F3F3"/>
<circle cx="97.5" cy="124.5" r="3.5" fill="#F3F3F3"/>
<circle cx="97.5" cy="142.5" r="3" fill="#F3F3F3"/>
<circle cx="97.5" cy="151.5" r="2" fill="#F3F3F3"/>
<circle cx="106.5" cy="88.5" r="2" fill="#F3F3F3"/>
<circle cx="106.5" cy="97.5" r="2" fill="#F3F3F3"/>
<circle cx="106.5" cy="151.5" r="1" fill="#F3F3F3"/>
<circle cx="115.5" cy="88.5" r="1" fill="#F3F3F3"/>
<circle cx="115.5" cy="106.5" r="2" fill="#F3F3F3"/>
<circle cx="115.5" cy="124.5" r="3" fill="#F3F3F3"/>
<circle cx="115.5" cy="133.5" r="1" fill="#F3F3F3"/>
<circle cx="115.5" cy="142.5" r="3" fill="#F3F3F3"/>
<circle cx="115.5" cy="151.5" r="2" fill="#F3F3F3"/>
<circle cx="124.5" cy="97.5" r="2" fill="#F3F3F3"/>
<circle cx="124.5" cy="106.5" r="3.5" fill="#F3F3F3"/>
<circle cx="124.5" cy="115.5" r="1.5" fill="#F3F3F3"/>
<circle cx="124.5" cy="133.5" r="2" fill="#F3F3F3"/>
<circle cx="133.5" cy="151.5" r="1.5" fill="#F3F3F3"/>
<circle cx="142.5" cy="88.5" r="2" fill="#F3F3F3"/>
<circle cx="142.5" cy="106.5" r="1" fill="#F3F3F3"/>
<circle cx="142.5" cy="115.5" r="2" fill="#F3F3F3"/>
<circle cx="142.5" cy="124.5" r="3" fill="#F3F3F3"/>
<circle cx="151.5" cy="88.5" r="1" fill="#F3F3F3"/>
<circle cx="151.5" cy="106.5" r="2" fill="#F3F3F3"/>
<circle cx="151.5" cy="142.5" r="2" fill="#F3F3F3"/>
<circle cx="151.5" cy="151.5" r="1" fill="#F3F3F3"/>
<circle cx="8.5" cy="186.5" r="1" fill="#F3F3F3"/>
<circle cx="8.5" cy="195.5" r="2" fill="#F3F3F3"/>
<circle cx="17.5" cy="177.5" r="2.5" fill="#F3F3F3"/>
<circle cx="17.5" cy="195.5" r="1" fill="#F3F3F3"/>
<circle cx="17.5" cy="204.5" r="3.5" fill="#F3F3F3"/>
<circle cx="17.5" cy="222.5" r="3" fill="#F3F3F3"/>
<circle cx="17.5" cy="231.5" r="2" fill="#F3F3F3"/>
<circle cx="26.5" cy="168.5" r="2" fill="#F3F3F3"/>
<circle cx="26.5" cy="177.5" r="2" fill="#F3F3F3"/>
<circle cx="26.5" cy="231.5" r="1" fill="#F3F3F3"/>
<circle cx="35.5" cy="168.5" r="1" fill="#F3F3F3"/>
<circle cx="35.5" cy="186.5" r="2" fill="#F3F3F3"/>
<circle cx="35.5" cy="204.5" r="3" fill="#F3F3F3"/>
<circle cx="35.5" cy="213.5" r="1" fill="#F3F3F3"/>
<circle cx="35.5" cy="222.5" r="3" fill="#F3F3F3"/>
<circle cx="35.5" cy="231.5" r="2" fill="#F3F3F3"/>
<circle cx="44.5" cy="177.5" r="2" fill="#F3F3F3"/>
<circle cx="44.5" cy="186.5" r="3.5" fill="#F3F3F3"/>
<circle cx="44.5" cy="195.5" r="1.5" fill="#F3F3F3"/>
<circle cx="44.5" cy="213.5" r="2" fill="#F3F3F3"/>
<circle cx="53.5" cy="231.5" r="1.5" fill="#F3F3F3"/>
<circle cx="62.5" cy="168.5" r="2" fill="#F3F3F3"/>
<circle cx="62.5" cy="186.5" r="1" fill="#F3F3F3"/>
<circle cx="62.5" cy="195.5" r="2" fill="#F3F3F3"/>
<circle cx="62.5" cy="204.5" r="3" fill="#F3F3F3"/>
<circle cx="71.5" cy="168.5" r="1" fill="#F3F3F3"/>
<circle cx="71.5" cy="186.5" r="2" fill="#F3F3F3"/>
<circle cx="71.5" cy="222.5" r="2" fill="#F3F3F3"/>
<circle cx="71.5" cy="231.5" r="1" fill="#F3F3F3"/>
<circle cx="168.5" cy="186.5" r="1" fill="#F3F3F3"/>
<circle cx="168.5" cy="195.5" r="2" fill="#F3F3F3"/>
<circle cx="177.5" cy="177.5" r="2.5" fill="#F3F3F3"/>
<circle cx="177.5" cy="195.5" r="1" fill="#F3F3F3"/>
<circle cx="177.5" cy="204.5" r="3.5" fill="#F3F3F3"/>
<circle cx="177.5" cy="222.5" r="3" fill="#F3F3F3"/>
<circle cx="177.5" cy="231.5" r="2" fill="#F3F3F3"/>
<circle cx="186.5" cy="168.5" r="2" fill="#F3F3F3"/>
<circle cx="186.5" cy="177.5" r="2" fill="#F3F3F3"/>
<circle cx="186.5" cy="231.5" r="1" fill="#F3F3F3"/>
<circle cx="195.5" cy="168.5" r="1" fill="#F3F3F3"/>
<circle cx="195.5" cy="186.5" r="2" fill="#F3F3F3"/>
<circle cx="195.5" cy="204.5" r="3" fill="#F3F3F3"/>
<circle cx="195.5" cy="213.5" r="1" fill="#F3F3F3"/>
<circle cx="195.5" cy="222.5" r="3" fill="#F3F3F3"/>
<circle cx="195.5" cy="231.5" r="2" fill="#F3F3F3"/>
<circle cx="204.5" cy="177.5" r="2" fill="#F3F3F3"/>
<circle cx="204.5" cy="186.5" r="3.5" fill="#F3F3F3"/>
<circle cx="204.5" cy="195.5" r="1.5" fill="#F3F3F3"/>
<circle cx="204.5" cy="213.5" r="2" fill="#F3F3F3"/>
<circle cx="213.5" cy="231.5" r="1.5" fill="#F3F3F3"/>
<circle cx="222.5" cy="168.5" r="2" fill="#F3F3F3"/>
<circle cx="222.5" cy="186.5" r="1" fill="#F3F3F3"/>
<circle cx="222.5" cy="195.5" r="2" fill="#F3F3F3"/>
<circle cx="222.5" cy="204.5" r="3" fill="#F3F3F3"/>
<circle cx="231.5" cy="168.5" r="1" fill="#F3F3F3"/>
<circle cx="231.5" cy="186.5" r="2" fill="#F3F3F3"/>
<circle cx="231.5" cy="222.5" r="2" fill="#F3F3F3"/>
<circle cx="231.5" cy="231.5" r="1" fill="#F3F3F3"/>
<path d="M28.06 40.0601L32.06 47.0001L27 53.3601L20 41.2401L28.06 40.0601ZM50 52.0001V46.5801C51.76 45.8001 53 44.0601 53 42.0001C53 40.8601 52.6 39.8001 51.94 39.0001L55.88 36.7001C57.9 35.5201 58.6 32.9401 57.42 30.9201L54.66 26.1201C53.48 24.1001 50.9 23.4001 48.88 24.5601L32.62 34.0001C30.72 35.0601 30.06 37.5001 31.16 39.4201L34.16 44.6201C35.26 46.5201 37.72 47.1801 39.62 46.0801L43.38 43.9201C43.88 45.1001 44.82 46.0601 46 46.5801V52.0001C46 54.2001 47.8 56.0001 50 56.0001H60V52.0001H50Z" fill="#F3F3F3"/>
<path d="M120 178L102 186V198C102 209.1 109.68 219.48 120 222C130.32 219.48 138 209.1 138 198V186L120 178ZM120 190C122.8 190 125.6 192.2 125.6 195V198C126.8 198 128 199.2 128 200.6V207.6C128 208.8 126.8 210 125.4 210H114.4C113.2 210 112 208.8 112 207.4V200.4C112 199.2 113.2 198 114.4 198V195C114.4 192.2 117.2 190 120 190ZM120 192.4C118.4 192.4 117 193.4 117 195V198H123V195C123 193.4 121.6 192.4 120 192.4Z" fill="#F3F3F3"/>
<path d="M200 18L182 26V38C182 49.1 189.68 59.48 200 62C210.32 59.48 218 49.1 218 38V26L200 18ZM200 22.36L214 28.6V38.44C214 41.84 213 45.3 211.3 48.34C208 45.88 202.52 45 200 45C197.48 45 192 45.88 188.7 48.34C187 45.3 186 41.84 186 38.44V28.6L200 22.36ZM200 28C198.143 28 196.363 28.7375 195.05 30.0503C193.737 31.363 193 33.1435 193 35C193 36.8565 193.737 38.637 195.05 39.9497C196.363 41.2625 198.143 42 200 42C201.857 42 203.637 41.2625 204.95 39.9497C206.263 38.637 207 36.8565 207 35C207 33.1435 206.263 31.363 204.95 30.0503C203.637 28.7375 201.857 28 200 28ZM200 32C200.796 32 201.559 32.3161 202.121 32.8787C202.684 33.4413 203 34.2044 203 35C203 35.7957 202.684 36.5587 202.121 37.1213C201.559 37.6839 200.796 38 200 38C199.204 38 198.441 37.6839 197.879 37.1213C197.316 36.5587 197 35.7957 197 35C197 34.2044 197.316 33.4413 197.879 32.8787C198.441 32.3161 199.204 32 200 32ZM200 49C203.14 49 207.28 50.22 209.06 51.68C206.58 54.76 203.4 57.1 200 58C196.6 57.1 193.42 54.76 190.94 51.68C192.74 50.22 196.86 49 200 49Z" fill="#F3F3F3"/>
<path d="M196 100C193.78 100 192 101.78 192 104V110C192 112.22 193.78 114 196 114H198V118H180V122H188V126H186C183.78 126 182 127.78 182 130V136C182 138.22 183.78 140 186 140H194C196.22 140 198 138.22 198 136V130C198 127.78 196.22 126 194 126H192V122H208V126H206C203.78 126 202 127.78 202 130V136C202 138.22 203.78 140 206 140H214C216.22 140 218 138.22 218 136V130C218 127.78 216.22 126 214 126H212V122H220V118H202V114H204C206.22 114 208 112.22 208 110V104C208 101.78 206.22 100 204 100H196ZM196 104H204V110H196V104ZM186 130H194V136H186V130ZM206 130H214V136H206V130Z" fill="#F3F3F3"/>
<path d="M51.62 104.94C51.46 104.94 51.3 104.9 51.16 104.82C47.32 102.84 44 102 40 102C36.06 102 32.3 102.94 28.88 104.82C28.4 105.08 27.8 104.9 27.52 104.42C27.26 103.94 27.44 103.32 27.92 103.06C31.64 101 35.72 100 40 100C44.28 100 48 100.94 52.08 103C52.58 103.3 52.76 103.9 52.5 104.38C52.32 104.74 52 104.94 51.62 104.94ZM23 115.44C22.8 115.44 22.6 115.38 22.42 115.26C22 114.94 21.86 114.32 22.18 113.86C24.16 111.06 26.68 108.86 29.68 107.32C36 104.08 44 104.06 50.3 107.3C53.3 108.84 55.82 111 57.8 113.8C58.12 114.24 58 114.88 57.56 115.2C57.1 115.52 56.48 115.42 56.16 115C54.36 112.44 52.08 110.46 49.38 109.08C43.64 106.14 36.3 106.14 30.58 109.1C27.86 110.5 25.58 112.5 23.78 115C23.62 115.3 23.32 115.44 23 115.44ZM35.5 139.58C35.24 139.58 35 139.48 34.8 139.28C33.06 137.54 32.12 136.42 30.78 134C29.4 131.54 28.68 128.54 28.68 125.32C28.68 119.38 33.76 114.54 40 114.54C46.24 114.54 51.32 119.38 51.32 125.32C51.32 125.585 51.2146 125.84 51.0271 126.027C50.8396 126.215 50.5852 126.32 50.32 126.32C50.0548 126.32 49.8004 126.215 49.6129 126.027C49.4254 125.84 49.32 125.585 49.32 125.32C49.32 120.48 45.14 116.54 40 116.54C34.86 116.54 30.68 120.48 30.68 125.32C30.68 128.2 31.32 130.86 32.54 133C33.82 135.32 34.7 136.3 36.24 137.86C36.62 138.26 36.62 138.88 36.24 139.28C36 139.48 35.76 139.58 35.5 139.58ZM49.84 135.88C47.46 135.88 45.36 135.28 43.64 134.1C40.66 132.08 38.88 128.8 38.88 125.32C38.88 125.055 38.9854 124.8 39.1729 124.613C39.3604 124.425 39.6148 124.32 39.88 124.32C40.1452 124.32 40.3996 124.425 40.5871 124.613C40.7746 124.8 40.88 125.055 40.88 125.32C40.88 128.14 42.32 130.8 44.76 132.44C46.18 133.4 47.84 133.86 49.84 133.86C50.32 133.86 51.12 133.8 51.92 133.66C52.46 133.56 53 133.92 53.08 134.48C53.18 135 52.82 135.54 52.26 135.64C51.12 135.86 50.12 135.88 49.84 135.88ZM45.82 140C45.74 140 45.64 140 45.56 140C42.38 139.08 40.3 137.9 38.12 135.76C35.32 133 33.78 129.28 33.78 125.32C33.78 122.08 36.54 119.44 39.94 119.44C43.34 119.44 46.1 122.08 46.1 125.32C46.1 127.46 48 129.2 50.26 129.2C52.56 129.2 54.42 127.46 54.42 125.32C54.42 117.78 47.92 111.66 39.92 111.66C34.24 111.66 29 114.82 26.7 119.72C25.92 121.34 25.52 123.24 25.52 125.32C25.52 126.88 25.66 129.34 26.86 132.54C27.06 133.06 26.8 133.64 26.28 133.82C25.76 134 25.18 133.74 25 133.24C24 130.62 23.54 128 23.54 125.32C23.54 122.92 24 120.74 24.9 118.84C27.56 113.26 33.46 109.64 39.92 109.64C49 109.64 56.42 116.66 56.42 125.3C56.42 128.54 53.66 131.18 50.26 131.18C46.86 131.18 44.1 128.54 44.1 125.3C44.1 123.16 42.24 121.42 39.94 121.42C37.64 121.42 35.78 123.16 35.78 125.3C35.78 128.72 37.1 131.92 39.52 134.32C41.42 136.2 43.24 137.24 46.06 138C46.6 138.16 46.9 138.72 46.76 139.24C46.66 139.7 46.24 140 45.82 140Z" fill="#F3F3F3"/>
<circle cx="88.5" cy="26.5" r="1" fill="#F3F3F3"/>
<circle cx="88.5" cy="35.5" r="2" fill="#F3F3F3"/>
<circle cx="97.5" cy="17.5" r="2.5" fill="#F3F3F3"/>
<circle cx="97.5" cy="35.5" r="1" fill="#F3F3F3"/>
<circle cx="97.5" cy="44.5" r="3.5" fill="#F3F3F3"/>
<circle cx="97.5" cy="62.5" r="3" fill="#F3F3F3"/>
<circle cx="97.5" cy="71.5" r="2" fill="#F3F3F3"/>
<circle cx="106.5" cy="8.5" r="2" fill="#F3F3F3"/>
<circle cx="106.5" cy="17.5" r="2" fill="#F3F3F3"/>
<circle cx="106.5" cy="71.5" r="1" fill="#F3F3F3"/>
<circle cx="115.5" cy="8.5" r="1" fill="#F3F3F3"/>
<circle cx="115.5" cy="26.5" r="2" fill="#F3F3F3"/>
<circle cx="115.5" cy="44.5" r="3" fill="#F3F3F3"/>
<circle cx="115.5" cy="53.5" r="1" fill="#F3F3F3"/>
<circle cx="115.5" cy="62.5" r="3" fill="#F3F3F3"/>
<circle cx="115.5" cy="71.5" r="2" fill="#F3F3F3"/>
<circle cx="124.5" cy="17.5" r="2" fill="#F3F3F3"/>
<circle cx="124.5" cy="26.5" r="3.5" fill="#F3F3F3"/>
<circle cx="124.5" cy="35.5" r="1.5" fill="#F3F3F3"/>
<circle cx="124.5" cy="53.5" r="2" fill="#F3F3F3"/>
<circle cx="133.5" cy="71.5" r="1.5" fill="#F3F3F3"/>
<circle cx="142.5" cy="8.5" r="2" fill="#F3F3F3"/>
<circle cx="142.5" cy="26.5" r="1" fill="#F3F3F3"/>
<circle cx="142.5" cy="35.5" r="2" fill="#F3F3F3"/>
<circle cx="142.5" cy="44.5" r="3" fill="#F3F3F3"/>
<circle cx="151.5" cy="8.5" r="1" fill="#F3F3F3"/>
<circle cx="151.5" cy="26.5" r="2" fill="#F3F3F3"/>
<circle cx="151.5" cy="62.5" r="2" fill="#F3F3F3"/>
<circle cx="151.5" cy="71.5" r="1" fill="#F3F3F3"/>
</svg>
